<?xml version="1.0" encoding="UTF-8" standalone="no"?>
<svg
   xmlns:dc="http://purl.org/dc/elements/1.1/"
   xmlns:cc="http://creativecommons.org/ns#"
   xmlns:rdf="http://www.w3.org/1999/02/22-rdf-syntax-ns#"
   xmlns:svg="http://www.w3.org/2000/svg"
   xmlns="http://www.w3.org/2000/svg"
   width="358.37152"
   height="365.87082"
   viewBox="0 0 94.81913 96.803324"
   version="1.1"
   id="svg1205">
  <defs
     id="defs1199">
    <clipPath
       clipPathUnits="userSpaceOnUse"
       id="clipPath1222">
      <rect
         style="fill:none;stroke:#ff0000;stroke-width:0.254576;stroke-linecap:round;stroke-linejoin:round;stroke-dasharray:0.0254576, 0.0254576"
         id="rect1224"
         width="96.152725"
         height="99.731026"
         x="292.186"
         y="158.57945" />
    </clipPath>
  </defs>
  <metadata
     id="metadata1202">
    <rdf:RDF>
      <cc:Work
         rdf:about="">
        <dc:format>image/svg+xml</dc:format>
        <dc:type
           rdf:resource="http://purl.org/dc/dcmitype/StillImage" />
        <dc:title />
      </cc:Work>
    </rdf:RDF>
  </metadata>
  <g
     id="layer1"
     transform="translate(-293.5196,-159.19528)">
    <path
       style="fill:#000000;stroke-width:0.161103"
       d="m 325.51538,255.87517 c -1.77584,-0.43233 -2.87567,-1.85956 -2.88202,-3.73996 -0.003,-0.91121 0.0681,-1.18732 0.4764,-1.8477 0.264,-0.42702 0.79265,-0.99613 1.17476,-1.26469 0.644,-0.45262 0.79672,-0.48829 2.09053,-0.48829 1.31965,0 1.43794,0.0293 2.16894,0.53678 l 0.77316,0.53677 2.69055,-1.66128 c 1.4798,-0.91371 3.75337,-2.31965 5.05238,-3.12431 l 2.36185,-1.46303 -0.72141,-0.43574 c -0.83555,-0.50469 -0.90078,-0.98717 -0.1874,-1.38627 0.4164,-0.23295 0.46029,-0.21743 1.23687,0.43739 l 0.80515,0.67891 4.9857,-3.09236 c 4.32006,-2.67951 4.95498,-3.12309 4.75564,-3.32243 -0.41471,-0.41471 -0.19061,-0.89473 0.5348,-1.14551 0.65773,-0.22739 0.66821,-0.24318 0.74062,-1.11636 0.0663,-0.79913 0.0326,-0.92129 -0.34496,-1.24979 -0.58732,-0.51106 -0.31375,-0.94747 0.59393,-0.94747 0.43844,0 0.77294,-0.11191 1.02718,-0.34364 0.6898,-0.62872 1.36367,-0.86463 2.46978,-0.86463 4.066,0 5.25565,5.25459 1.61472,7.1321 -1.22013,0.62918 -3.01745,0.38694 -4.03857,-0.54432 -0.32749,-0.29867 -0.3882,-0.26656 -5.58481,2.95347 l -5.25373,3.25542 0.77992,0.52523 c 0.42896,0.28888 0.82761,0.67544 0.88587,0.85903 0.12831,0.40424 -0.16735,0.80164 -0.5964,0.80164 -0.50859,0 -1.70908,-0.79087 -1.8522,-1.22021 -0.12944,-0.38832 -0.24222,-0.32792 -5.67571,3.03944 l -5.54364,3.43563 0.0378,1.16538 c 0.0298,0.91883 -0.0358,1.31734 -0.3099,1.88364 -0.44016,0.90923 -1.30311,1.62694 -2.32153,1.93077 -0.85459,0.25496 -1.19051,0.26989 -1.94427,0.0864 z m 2.03211,-1.65115 c 0.399,-0.22425 0.74292,-0.59327 0.94828,-1.01748 0.31895,-0.65885 0.43466,-1.53528 0.20139,-1.52538 -0.29305,0.0124 -0.65122,0.4424 -0.75245,0.90329 -0.2121,0.96566 -1.16166,1.49795 -2.11245,1.18416 -1.09488,-0.36134 -1.39197,-1.76723 -0.55114,-2.60806 0.44253,-0.44254 0.56735,-0.48334 1.27146,-0.41569 0.45133,0.0434 0.93499,-0.008 1.14628,-0.12059 l 0.36552,-0.19562 -0.42257,-0.27688 c -0.70031,-0.45886 -1.54721,-0.47919 -2.35616,-0.0565 -0.92326,0.48236 -1.34375,1.23408 -1.25573,2.24491 0.15709,1.80413 1.95051,2.76462 3.51757,1.88388 z m 29.11942,-17.97271 c 1.36522,-1.01753 1.35058,-2.94208 -0.0302,-3.97133 -0.65007,-0.48457 -1.94233,-0.46777 -2.64638,0.0344 -0.28797,0.2054 -0.52359,0.50463 -0.52359,0.66496 0,0.16033 -0.10874,0.38176 -0.24165,0.49206 -0.1411,0.1171 -0.24166,0.46869 -0.24166,0.8449 0,0.63171 0.007,0.63965 0.36249,0.40504 0.19936,-0.13162 0.38516,-0.42785 0.4129,-0.65829 0.0718,-0.59682 0.89169,-1.23606 1.58536,-1.23606 1.29344,0 2.0277,1.74812 1.11684,2.65898 -0.49208,0.49207 -1.1318,0.65597 -1.64599,0.42169 -0.28137,-0.1282 -0.49296,-0.13259 -0.71308,-0.0148 -0.42353,0.22666 -0.39854,0.29422 0.21058,0.56918 0.67093,0.30286 1.801,0.2017 2.3544,-0.21075 z m -2.40453,19.56072 c -1.03313,-0.2872 -1.69627,-0.81034 -2.24914,-1.77431 -0.38882,-0.67793 -0.477,-1.01809 -0.47824,-1.84463 -0.001,-0.79246 -0.0794,-1.11882 -0.35895,-1.49688 -0.46179,-0.6246 -0.24876,-1.03396 0.53809,-1.03396 0.29937,0 0.7618,-0.15338 1.02762,-0.34083 0.9592,-0.67643 1.50844,-0.86744 2.49427,-0.86744 2.26247,0 3.77623,1.48491 3.77736,3.70536 10e-4,2.55793 -2.30654,4.33225 -4.75101,3.65269 z m 2.39813,-1.66813 c 1.01812,-0.74612 1.27289,-2.36533 0.53517,-3.40135 -0.44327,-0.62253 -1.57833,-1.07639 -2.33629,-0.9342 -0.72532,0.13607 -1.39267,0.6721 -1.39267,1.11861 0,0.19539 -0.15205,0.48546 -0.3379,0.64459 -0.63488,0.54359 -0.13299,1.88056 0.99713,2.65621 0.44299,0.30405 0.69918,0.36285 1.32628,0.30443 0.42749,-0.0398 0.97121,-0.21456 1.20828,-0.38829 z m -1.90496,-0.3262 c -0.47897,-0.17509 -0.9636,-0.75348 -1.05945,-1.2644 -0.28305,-1.5088 1.58901,-2.46683 2.68287,-1.37297 0.77935,0.77936 0.56828,2.03202 -0.42155,2.50173 -0.54454,0.2584 -0.79021,0.28612 -1.20187,0.13564 z m 28.59574,2.05747 c -1.73593,-0.42262 -2.98333,-2.0202 -2.97882,-3.81507 0.003,-1.35458 1.20379,-3.01871 2.4817,-3.44046 l 0.57768,-0.19065 -6.5e-4,-5.18307 -6.4e-4,-5.18308 -0.72016,-0.29615 c -0.7902,-0.32495 -1.61238,-1.15792 -1.95698,-1.98267 -0.32652,-0.78146 -0.28314,-2.36573 0.0845,-3.08638 0.41946,-0.82221 1.09421,-1.47078 1.90915,-1.83508 l 0.68477,-0.30608 -0.002,-5.18803 -0.002,-5.18802 -0.92384,-0.49374 c -1.30607,-0.698 -1.97101,-1.80268 -1.97101,-3.27447 0,-1.69024 0.90856,-3.06592 2.37626,-3.59799 l 0.52359,-0.18981 v -5.11112 -5.11112 l -0.8749,-0.40054 c -2.01217,-0.9212 -2.76098,-3.41358 -1.61371,-5.37124 0.43125,-0.73587 1.65635,-1.66257 2.19794,-1.66257 0.27417,0 0.29067,-0.29615 0.29067,-5.21838 v -5.21837 l -0.44304,-0.1082 c -0.24367,-0.0595 -0.71684,-0.29606 -1.05149,-0.52568 -0.54307,-0.37262 -0.65111,-0.39466 -1.00533,-0.20509 -0.34459,0.18442 -0.4395,0.17381 -0.72063,-0.0806 -0.41229,-0.37311 -0.41393,-0.82845 -0.004,-1.08451 0.2844,-0.17761 0.309,-0.3167 0.22183,-1.25453 -0.0819,-0.88114 -0.038,-1.19438 0.26685,-1.90295 0.40361,-0.93821 1.34217,-1.84917 2.19529,-2.13072 l 0.54043,-0.17836 v -5.21055 -5.21054 l -0.45771,-0.10054 c -0.25175,-0.0553 -0.70463,-0.30665 -1.00639,-0.55858 l -0.54867,-0.45805 -0.60104,0.3444 c -0.70673,0.40497 -1.14081,0.25118 -1.2227,-0.43317 -0.0398,-0.3327 0.0627,-0.49179 0.48081,-0.74604 0.52804,-0.32113 0.53108,-0.33015 0.48039,-1.42733 -0.0596,-1.28954 0.21259,-2.08876 0.99052,-2.90871 2.06588,-2.17746 5.74918,-1.11965 6.41184,1.84143 0.41338,1.84713 -0.7899,3.9347 -2.53718,4.40181 l -0.45939,0.12281 -0.0425,5.16129 -0.0425,5.1613 0.71692,0.2738 c 0.79112,0.30213 1.77233,1.28234 2.12243,2.12027 0.36747,0.87946 0.28723,2.13724 -0.19852,3.11201 -0.4521,0.90725 -1.42037,1.74671 -2.1934,1.90161 l -0.44302,0.0888 v 5.12761 5.12762 l 0.76322,0.33761 c 1.008,0.44588 1.45572,0.87903 1.91472,1.85235 0.9549,2.0249 -0.0219,4.47813 -2.05562,5.16268 l -0.54178,0.18236 -0.0425,5.18124 c -0.0378,4.60982 -0.0147,5.18125 0.20937,5.18125 0.3709,0 1.21791,0.45966 1.74084,0.94473 1.2348,1.14539 1.53625,3.14962 0.69072,4.59238 -0.48994,0.83603 -1.46962,1.6336 -2.205,1.79512 l -0.47397,0.1041 6.4e-4,5.18277 6.4e-4,5.18276 0.72133,0.29664 c 0.9882,0.40638 1.45759,0.80628 1.96734,1.67611 0.83421,1.42346 0.52557,3.43549 -0.70161,4.57381 -0.52179,0.48394 -1.36979,0.94473 -1.73868,0.94473 -0.22032,0 -0.24966,0.61146 -0.24966,5.20348 v 5.20348 l 0.58233,0.21057 c 0.32027,0.11582 0.87533,0.47474 1.23345,0.79761 2.26154,2.03892 1.29198,5.77394 -1.6765,6.45838 -0.79445,0.18318 -0.98766,0.18542 -1.66976,0.0194 z m 1.73703,-1.52018 c 0.67528,-0.28773 1.15581,-0.83794 1.40148,-1.60471 0.16695,-0.52105 0.15568,-0.72762 -0.0723,-1.32451 -0.24997,-0.65453 -1.04045,-1.52187 -1.38701,-1.52187 -0.31999,0 -0.13869,0.91989 0.25402,1.28882 0.84433,0.79321 0.37292,2.37683 -0.79477,2.6699 -0.51418,0.12905 -1.31127,-0.18114 -1.62819,-0.63361 -0.37279,-0.53223 -0.29564,-1.45647 0.16752,-2.0069 0.35575,-0.42279 0.56415,-1.31821 0.3068,-1.31821 -0.25141,0 -1.06256,0.71996 -1.27585,1.13242 -1.01549,1.96375 1.00683,4.18 3.02828,3.31867 z m -1.65647,-18.16185 c 0,-0.18657 -0.18125,-0.55462 -0.40276,-0.81787 -0.22152,-0.26326 -0.40276,-0.65793 -0.40276,-0.87705 0,-0.4609 0.39433,-1.29251 0.65391,-1.37903 0.0979,-0.0326 0.15355,-0.30633 0.12422,-0.61044 l -0.0532,-0.55131 -0.60214,0.53027 c -1.13321,0.99796 -1.17294,2.58038 -0.0902,3.59184 0.57892,0.54079 0.77288,0.5693 0.77288,0.11359 z m 2.33378,-0.01 c 0.8234,-0.64769 1.12138,-1.95472 0.6524,-2.86162 -0.24461,-0.47303 -1.12725,-1.30001 -1.38752,-1.30001 -0.31141,0 -0.13629,0.86066 0.2475,1.21635 0.21793,0.20197 0.44328,0.55464 0.50077,0.78371 0.14748,0.58759 -0.0386,1.18838 -0.50077,1.61669 -0.43067,0.39913 -0.52828,0.89414 -0.17631,0.89414 0.12096,0 0.41973,-0.15717 0.66393,-0.34926 z m -2.68299,-18.60908 c -0.51499,-0.54817 -0.52164,-1.64269 -0.0133,-2.18382 0.19937,-0.21221 0.36248,-0.58463 0.36248,-0.8276 v -0.44176 l -0.48673,0.28752 c -0.51628,0.30498 -1.12429,1.36581 -1.12429,1.96163 0,0.60317 0.41265,1.38627 0.98498,1.86925 0.54394,0.45901 0.54565,0.45929 0.59904,0.0975 0.0318,-0.2157 -0.0988,-0.52494 -0.3222,-0.76275 z m 2.5282,0.75117 c 0.93816,-0.57981 1.28722,-1.84 0.81963,-2.95908 -0.21589,-0.51671 -1.01026,-1.22705 -1.37219,-1.22705 -0.3572,0 -0.16489,0.79235 0.3068,1.26404 0.35508,0.35508 0.48331,0.6347 0.48331,1.05395 0,0.40433 -0.14087,0.73108 -0.48331,1.12111 -0.43698,0.49769 -0.64133,1.07178 -0.3815,1.07178 0.056,0 0.33827,-0.14614 0.62726,-0.32475 z m -2.57013,-18.53985 c -0.56487,-0.67131 -0.56992,-1.61567 -0.0116,-2.17397 0.42487,-0.42486 0.54898,-1.19362 0.19271,-1.19362 -0.11553,0 -0.45201,0.24963 -0.74774,0.55475 -0.99722,1.02888 -0.80934,2.87287 0.36916,3.62319 0.50656,0.3225 0.50823,0.32251 0.55998,0.003 0.0285,-0.17638 -0.13457,-0.54229 -0.36248,-0.81315 z m 3.05339,0.27363 c 0.42676,-0.65132 0.56927,-1.39673 0.39253,-2.05312 -0.17286,-0.64194 -0.99242,-1.5881 -1.3756,-1.5881 -0.3751,0 -0.2654,0.75473 0.1735,1.19362 0.30675,0.30676 0.40275,0.57062 0.40275,1.10696 0,0.54285 -0.0923,0.7909 -0.40275,1.08258 -0.22152,0.2081 -0.40276,0.54883 -0.40276,0.75718 0,0.36877 0.0128,0.37221 0.48179,0.12967 0.26499,-0.13703 0.59373,-0.41998 0.73054,-0.62879 z m -2.66225,-17.27146 c 0,-0.14227 -0.18125,-0.47407 -0.40276,-0.73733 -0.27685,-0.32901 -0.40276,-0.67238 -0.40276,-1.09834 0,-0.42596 0.12591,-0.76932 0.40276,-1.09834 0.22151,-0.26325 0.40276,-0.67422 0.40276,-0.91325 v -0.43461 l -0.50537,0.29676 c -1.01662,0.59698 -1.48268,2.40272 -0.78345,3.03551 0.17721,0.16038 0.3222,0.38499 0.3222,0.49914 0,0.20488 0.59828,0.70913 0.84136,0.70913 0.0689,0 0.12526,-0.1164 0.12526,-0.25867 z m 2.38763,-0.27536 c 0.64902,-0.66962 0.88244,-1.42889 0.67507,-2.19583 -0.20592,-0.76156 -0.56395,-1.24692 -1.13925,-1.54442 -0.46604,-0.241 -0.47353,-0.23817 -0.47353,0.17904 0,0.23315 0.18124,0.63931 0.40276,0.90256 0.27684,0.32902 0.40275,0.67238 0.40275,1.09834 0,0.42596 -0.12591,0.76933 -0.40275,1.09834 -0.81113,0.96397 -0.34324,1.36803 0.53495,0.46197 z m 0.39226,-18.17577 c 0.95793,-1.28525 0.23214,-3.22125 -1.37025,-3.65507 -1.26655,-0.34289 -2.71676,0.58279 -2.9348,1.87331 -0.12964,0.76738 0.26228,1.83503 0.84062,2.28995 0.53504,0.42087 0.68454,0.40262 0.68454,-0.0836 0,-0.22151 -0.0706,-0.40275 -0.15697,-0.40275 -0.23166,0 -0.64855,-0.88546 -0.64855,-1.37749 0,-0.56381 0.94875,-1.52236 1.50679,-1.52236 1.5073,0 2.24935,1.64962 1.23196,2.73874 -0.26582,0.28456 -0.48331,0.66139 -0.48331,0.83739 0,0.31433 0.009,0.31474 0.50674,0.0232 0.27871,-0.16322 0.64917,-0.48785 0.82323,-0.72139 z m -90.50038,91.14528 c -0.9599,-0.45267 -1.39744,-0.89812 -1.83915,-1.87243 -0.59672,-1.31625 -0.30622,-3.09462 0.68115,-4.16972 0.55892,-0.60858 1.85604,-1.14332 2.77767,-1.1451 1.09315,-0.002 2.38257,0.64213 2.94976,1.4738 0.42404,0.62179 0.63472,0.68289 1.33465,0.3871 0.25014,-0.10571 0.94279,0.43357 0.94279,0.73404 0,0.2443 -0.5374,0.64441 -0.98604,0.73414 -0.40834,0.0817 -0.46407,0.16271 -0.46546,0.67678 -0.002,0.7002 -0.6123,2.05818 -1.1451,2.5475 -1.11437,1.02344 -2.86923,1.28516 -4.25027,0.63389 z m 2.92297,-1.4128 c 1.1867,-0.71143 1.37169,-2.60371 0.35403,-3.62137 -1.69819,-1.6982 -4.62634,-0.0601 -3.99296,2.23382 0.43765,1.58502 2.19305,2.25437 3.63893,1.38755 z m -2.32763,-0.69952 c -0.89254,-0.75102 -0.71407,-2.09429 0.34537,-2.5995 1.60887,-0.76722 2.99693,1.26252 1.72988,2.52957 -0.61028,0.61029 -1.40139,0.63694 -2.07525,0.0699 z m 126.67518,-1.69448 c -0.12425,-0.20105 0.3206,-0.38735 0.63596,-0.26633 0.23914,0.0918 1.21743,-0.87926 1.21743,-1.2084 0,-0.43716 -0.6826,-3.02335 -0.85491,-3.23903 -0.10574,-0.13236 -0.38063,-0.28421 -0.61086,-0.33746 -0.40471,-0.0936 -0.43079,-0.0528 -0.78644,1.22923 -0.57004,2.05493 -0.56904,2.03948 -0.0963,1.48713 0.28011,-0.32727 0.41392,-0.40135 0.41447,-0.22946 0.002,0.57778 -1.24586,1.25255 -1.51395,0.81877 -0.0461,-0.0746 0.12142,-0.87207 0.3723,-1.77213 0.45506,-1.63258 0.45533,-1.6365 0.11461,-1.64595 -0.32703,-0.009 -0.32864,-0.0176 -0.038,-0.20138 0.16694,-0.10555 0.50364,-0.35502 0.74822,-0.55439 0.57031,-0.46486 0.59811,-0.45831 0.51311,0.12083 -0.0709,0.48284 -0.0701,0.48331 0.74663,0.48331 h 0.81756 l 0.25392,0.84579 c 0.13966,0.46518 0.29865,1.1637 0.35333,1.55224 l 0.0994,0.70646 0.29061,-0.54535 c 0.58857,-1.10452 0.68471,-1.5831 0.38464,-1.91468 -0.31291,-0.34576 -0.20155,-0.64446 0.24026,-0.64446 0.66752,0 0.52382,0.9074 -0.44884,2.83424 -0.91579,1.81417 -2.44397,3.14304 -2.85313,2.48102 z m 8.73478,0.0625 c -0.24675,-0.24674 -0.11203,-0.70578 0.20713,-0.70578 0.22555,0 0.32221,0.1074 0.32221,0.35801 0,0.35539 0.002,0.35568 0.29724,0.0403 0.16348,-0.17475 0.53537,-1.22393 0.82643,-2.33151 0.29105,-1.10758 0.56292,-2.13471 0.60416,-2.2825 0.0515,-0.18461 -0.0433,-0.2912 -0.30285,-0.34054 -0.35239,-0.067 -0.34887,-0.0733 0.0524,-0.0938 0.33793,-0.0172 0.45265,-0.12401 0.53472,-0.49768 0.17305,-0.78788 0.67707,-1.29639 1.28494,-1.29639 0.5563,0 0.887,0.39126 0.58552,0.69274 -0.24623,0.24623 -0.66777,0.004 -0.56377,-0.32416 0.0685,-0.21594 0.007,-0.19284 -0.24437,0.0923 -0.18463,0.20918 -0.33569,0.47511 -0.33569,0.59096 0,0.11584 -0.044,0.3253 -0.0978,0.46546 -0.0743,0.1936 0.0128,0.25941 0.36248,0.27389 l 0.46027,0.0191 -0.46998,0.10177 c -0.45004,0.0975 -0.49557,0.19329 -1.07365,2.26004 -0.69434,2.48241 -0.98292,2.97587 -1.78074,3.04496 -0.30449,0.0264 -0.60539,-0.004 -0.66868,-0.0671 z m 49.29747,0 c -0.24675,-0.24674 -0.11203,-0.70578 0.20713,-0.70578 0.22554,0 0.3222,0.1074 0.3222,0.35801 0,0.35539 0.002,0.35568 0.29724,0.0403 0.16349,-0.17475 0.53538,-1.22393 0.82642,-2.33151 0.29107,-1.10758 0.56293,-2.13471 0.60417,-2.2825 0.0515,-0.18461 -0.0433,-0.2912 -0.30284,-0.34054 -0.3524,-0.067 -0.34887,-0.0733 0.0524,-0.0938 0.33794,-0.0172 0.45265,-0.12401 0.53473,-0.49768 0.17304,-0.78788 0.67707,-1.29639 1.28494,-1.29639 0.55629,0 0.887,0.39126 0.58551,0.69274 -0.24623,0.24623 -0.66777,0.004 -0.56376,-0.32416 0.0684,-0.21594 0.007,-0.19284 -0.24438,0.0923 -0.18462,0.20918 -0.33569,0.47511 -0.33569,0.59096 0,0.11584 -0.044,0.3253 -0.0978,0.46546 -0.0743,0.1936 0.0129,0.25941 0.36248,0.27389 l 0.46028,0.0191 -0.46997,0.10177 c -0.45006,0.0975 -0.49559,0.19329 -1.07367,2.26004 -0.69434,2.48241 -0.98292,2.97587 -1.78074,3.04496 -0.30448,0.0264 -0.60539,-0.004 -0.66867,-0.0671 z m -177.13486,-1.22131 c -0.25793,-0.25793 -0.24489,-0.69104 0.0276,-0.9172 0.12152,-0.10084 0.603,-0.29682 1.06996,-0.43549 0.80979,-0.24048 0.86361,-0.23755 1.16461,0.0635 0.44956,0.44956 0.15793,0.90188 -0.78964,1.22475 -0.90485,0.30832 -1.21513,0.3219 -1.47254,0.0645 z m 90.91032,-0.63712 c -0.85113,-0.46553 -0.90414,-0.99478 -0.31858,-3.18049 0.22306,-0.83261 0.38599,-1.52875 0.36207,-1.54699 -0.0239,-0.0182 -0.18848,-0.11414 -0.36569,-0.21312 -0.26033,-0.1454 -0.0902,-0.18075 0.88606,-0.18406 l 1.20828,-0.004 -0.43292,0.36168 c -0.57822,0.48307 -1.40689,3.45248 -1.13191,4.056 0.23125,0.50753 0.98948,0.67243 1.61189,0.35057 0.59202,-0.30615 0.89337,-0.93492 1.35476,-2.82677 0.35747,-1.46573 0.35837,-1.49447 0.0542,-1.71688 -0.27857,-0.2037 -0.21578,-0.22621 0.63103,-0.22621 h 0.94039 l -0.39726,0.36816 c -0.27841,0.25802 -0.53071,0.85477 -0.84333,1.99468 -0.50994,1.85935 -0.88616,2.57251 -1.47522,2.79647 -0.54604,0.2076 -1.68009,0.19185 -2.08378,-0.029 z m 4.43033,-0.0186 c 0,-0.11254 0.14499,-0.72784 0.32221,-1.36734 0.39945,-1.44147 0.40755,-1.80778 0.0403,-1.82253 -0.45366,-0.0182 0.26577,-0.28576 0.80552,-0.29956 0.48965,-0.0125 0.52287,0.0783 0.27188,0.74343 -0.16627,0.4406 -0.15345,0.4363 0.44982,-0.15061 0.65061,-0.63297 1.42292,-0.81432 1.59195,-0.37383 0.0486,0.12667 -0.0624,0.77995 -0.24671,1.45172 -0.4131,1.50576 -0.41372,1.72788 -0.003,1.23527 0.17648,-0.21191 0.36243,-0.34374 0.41323,-0.29294 0.16091,0.16091 -0.48758,0.91526 -0.87745,1.02067 -0.66685,0.18028 -0.74346,-0.13115 -0.37143,-1.50991 0.44619,-1.65362 0.44756,-1.88024 0.01,-1.64603 -0.43691,0.23383 -1.20109,1.45165 -1.52742,2.43412 -0.19052,0.57362 -0.34224,0.78215 -0.56905,0.78215 -0.17008,0 -0.30925,-0.0921 -0.30925,-0.20461 z m 4.24669,-0.0377 c -0.0511,-0.13326 0.0599,-0.80879 0.24671,-1.50117 0.41185,-1.52633 0.41571,-1.63665 0.0578,-1.65103 -0.44652,-0.0179 0.2613,-0.28557 0.79224,-0.29956 l 0.42976,-0.0113 -0.41374,1.53307 c -0.41266,1.52908 -0.4037,2.0235 0.026,1.43582 0.12475,-0.1706 0.28136,-0.25564 0.34803,-0.18898 0.19694,0.19695 -0.60132,0.92545 -1.01407,0.92545 -0.20886,0 -0.42157,-0.10902 -0.47271,-0.24228 z m 2.93051,0.0409 c -0.0343,-0.11076 -0.0986,-0.7451 -0.14294,-1.40965 -0.0942,-1.41236 -0.20775,-1.77213 -0.55905,-1.77213 -0.1835,0 -0.20714,-0.0495 -0.0829,-0.1737 0.0955,-0.0955 0.38189,-0.14991 0.63635,-0.12083 0.44189,0.0505 0.47151,0.10633 0.65966,1.24334 0.10835,0.65475 0.22988,1.22334 0.27007,1.26353 0.11799,0.11799 1.06341,-1.26882 1.06341,-1.55988 0,-0.1462 -0.0807,-0.3465 -0.17929,-0.4451 -0.23218,-0.23219 -0.0454,-0.52957 0.33266,-0.52957 0.76923,0 0.3924,1.21018 -0.86535,2.77902 -0.7436,0.92752 -1.01595,1.10186 -1.13258,0.72497 z m 3.20445,-0.0273 c -0.2276,-0.16643 -0.31272,-0.42178 -0.31272,-0.93815 0,-1.25045 1.2053,-2.53855 2.37538,-2.53855 0.44182,0 0.60811,0.0782 0.68557,0.32221 0.22966,0.72357 -0.33861,1.3231 -1.60765,1.69611 -0.757,0.2225 -0.91727,0.66061 -0.4097,1.11996 0.32514,0.29425 0.34667,0.29414 0.93343,-0.005 0.88748,-0.45198 0.88824,-0.45219 0.81354,-0.22812 -0.10554,0.31663 -1.11437,0.79989 -1.66982,0.79989 -0.27242,0 -0.63603,-0.1029 -0.80803,-0.22866 z m 1.68403,-2.17196 c 0.67959,-0.63483 0.67038,-1.33219 -0.0128,-0.96658 -0.29435,0.15752 -0.93494,1.05602 -0.93622,1.31314 -0.001,0.26859 0.47776,0.0936 0.94898,-0.34656 z m 1.46896,2.291 c 10e-4,-0.0726 0.18234,-0.78399 0.40276,-1.58082 0.48594,-1.75677 0.48448,-1.69214 0.0383,-1.69518 -0.29312,-0.002 -0.31624,-0.0323 -0.12083,-0.15864 0.13291,-0.0859 0.47865,-0.15728 0.76831,-0.15863 0.49306,-0.002 0.51993,0.0258 0.42119,0.44056 l -0.10546,0.44304 0.48922,-0.45792 c 0.54464,-0.50978 1.08494,-0.52132 1.08494,-0.0232 0,0.24314 -0.11067,0.32158 -0.46074,0.32658 -0.57196,0.008 -0.98986,0.54584 -1.48066,1.90506 -0.26682,0.73893 -0.44288,1.0012 -0.69792,1.03969 -0.18759,0.0283 -0.34018,-0.008 -0.33908,-0.0805 z m 3.02757,-0.44737 c 0.0736,-0.63068 0.27609,-0.74649 0.43419,-0.24835 0.14554,0.45854 0.68211,0.71922 0.97686,0.47459 0.34449,-0.28589 0.28324,-0.6363 -0.25195,-1.44138 -0.85465,-1.28565 -0.54808,-1.96113 0.86328,-1.90207 l 0.83643,0.035 -0.062,0.53078 c -0.0601,0.51499 -0.34892,0.76382 -0.34892,0.30063 0,-0.26067 -0.42702,-0.73647 -0.66097,-0.73647 -0.38643,0 -0.31216,0.59057 0.19322,1.53646 l 0.54561,1.02118 -0.33735,0.45303 c -0.29427,0.3952 -0.45977,0.45906 -1.2962,0.50019 l -0.95885,0.0471 z m 3.47256,0.31471 c -0.0511,-0.13326 0.0599,-0.80879 0.24671,-1.50117 0.41185,-1.52633 0.41571,-1.63665 0.0577,-1.65103 -0.44651,-0.0179 0.26131,-0.28557 0.79225,-0.29956 l 0.42976,-0.0113 -0.41374,1.53307 c -0.41266,1.52908 -0.40371,2.0235 0.026,1.43582 0.12475,-0.1706 0.28136,-0.25564 0.34802,-0.18898 0.19695,0.19695 -0.60132,0.92545 -1.01407,0.92545 -0.20885,0 -0.42157,-0.10902 -0.4727,-0.24228 z m 10.09146,-0.0799 c -0.88596,-0.88596 0.21377,-3.094 1.65769,-3.32832 0.82054,-0.13315 1.3181,0.0328 1.53675,0.51274 0.26276,0.5767 0.23876,0.83835 -0.15071,1.64289 -0.63504,1.31182 -2.27338,1.94304 -3.04373,1.17269 z m 1.45999,-0.005 c 0.72879,-0.39004 1.33672,-2.38894 0.90345,-2.97063 -0.21312,-0.28614 -0.27836,-0.29553 -0.65451,-0.0942 -0.82672,0.44244 -1.53713,2.53318 -1.0323,3.03802 0.23662,0.23661 0.38206,0.2416 0.78336,0.0268 z m 6.60977,-0.3571 c 0.0728,-0.37658 0.13561,-0.77531 0.13947,-0.88607 0.0137,-0.39406 0.32922,-0.19406 0.32922,0.2087 0,0.49233 0.66109,1.20095 1.1204,1.20095 0.41545,0 0.97394,-0.54664 0.97394,-0.95328 0,-0.16988 -0.39873,-0.79532 -0.88607,-1.38986 -1.01481,-1.23805 -1.12525,-1.78209 -0.49063,-2.41671 0.41109,-0.4111 1.25975,-0.51733 1.94056,-0.24292 0.18523,0.0747 0.40947,0.0601 0.52747,-0.0343 0.3151,-0.25198 0.34361,-0.10936 0.16154,0.8081 -0.16357,0.82424 -0.44736,1.16119 -0.44736,0.53117 0,-0.49836 -0.34326,-1.12027 -0.67675,-1.22612 -0.40529,-0.12863 -1.09538,0.33779 -1.09538,0.74034 0,0.17594 0.39873,0.75361 0.88606,1.28371 0.59197,0.64391 0.88607,1.10062 0.88607,1.37598 0,0.53753 -0.40475,1.30939 -0.79659,1.5191 -0.4065,0.21755 -1.39383,0.21201 -1.80894,-0.0101 -0.23787,-0.1273 -0.37764,-0.1273 -0.50494,0 -0.3216,0.32159 -0.39189,0.18305 -0.25807,-0.50866 z m 4.33516,0.36248 c -0.88596,-0.88596 0.21377,-3.094 1.65768,-3.32832 0.82055,-0.13315 1.31811,0.0328 1.53675,0.51274 0.26277,0.5767 0.23877,0.83835 -0.15071,1.64289 -0.63504,1.31182 -2.27337,1.94304 -3.04372,1.17269 z m 1.45999,-0.005 c 0.72879,-0.39004 1.33671,-2.38894 0.90345,-2.97063 -0.21312,-0.28614 -0.27836,-0.29553 -0.65452,-0.0942 -0.82671,0.44244 -1.53712,2.53318 -1.03229,3.03802 0.23662,0.23661 0.38206,0.2416 0.78336,0.0268 z m 2.36366,0.12621 c -0.0383,-0.11076 0.0996,-0.81759 0.30656,-1.57075 0.3328,-1.21129 0.34805,-1.39042 0.13206,-1.5517 -0.21673,-0.16184 -0.215,-0.19352 0.0154,-0.28193 0.41316,-0.15854 1.03873,-0.11551 1.03873,0.0715 0,0.0941 -0.18796,0.82441 -0.4177,1.62294 -0.22973,0.79854 -0.36765,1.50089 -0.30649,1.56079 0.26865,0.26312 2.01245,-2.46875 2.01288,-3.15342 7e-5,-0.11075 0.18626,-0.20137 0.41374,-0.20137 0.31872,0 0.39422,0.0647 0.32909,0.28193 -0.33702,1.12407 -0.74209,2.73363 -0.73912,2.93688 0.002,0.16664 0.10188,0.11696 0.31119,-0.15545 0.16918,-0.2202 0.36118,-0.34678 0.42666,-0.2813 0.22462,0.22462 -0.61708,0.9233 -1.11231,0.9233 -0.46527,0 -0.47352,-0.0144 -0.37227,-0.64753 l 0.10355,-0.64754 -0.58501,0.64754 c -0.59586,0.65954 -1.40311,0.89086 -1.55695,0.44615 z m 4.00556,0.0657 c -0.0461,-0.0746 0.12143,-0.87207 0.37231,-1.77213 0.45505,-1.63258 0.45533,-1.6365 0.1146,-1.64596 -0.32702,-0.009 -0.32864,-0.0176 -0.038,-0.20137 0.16693,-0.10555 0.50363,-0.35502 0.74822,-0.55439 0.56848,-0.46337 0.59796,-0.45731 0.5153,0.10591 -0.0522,0.35561 0.003,0.48689 0.22928,0.54518 0.26037,0.0671 0.25542,0.0791 -0.0392,0.0955 -0.28107,0.0156 -0.39859,0.23997 -0.70589,1.34779 -0.57099,2.0584 -0.56996,2.04264 -0.0971,1.4902 0.28011,-0.32727 0.41392,-0.40135 0.41446,-0.22946 0.002,0.57778 -1.24586,1.25254 -1.51395,0.81877 z m 2.23365,-1.19345 c 0.20142,-0.73101 0.51739,-1.86238 0.70215,-2.51416 l 0.33591,-1.18506 -0.32824,-0.0858 c -0.46767,-0.1223 -0.0527,-0.3577 0.6362,-0.36088 0.4335,-0.002 0.5189,0.0508 0.45215,0.27947 -0.43301,1.48356 -0.62087,2.23199 -0.66954,2.66738 -0.0316,0.28292 -0.22461,0.9675 -0.42886,1.52129 -0.29834,0.80893 -0.43964,1.00689 -0.71867,1.00689 h -0.34732 z m 1.85875,1.08161 c 0,-0.13612 0.15453,-0.86362 0.3434,-1.61668 0.18887,-0.75306 0.29653,-1.41607 0.23924,-1.47336 -0.0573,-0.0573 -0.35681,0.14072 -0.66561,0.44001 -0.30879,0.2993 -0.56145,0.47168 -0.56145,0.38307 0,-0.0886 0.23907,-0.39281 0.53126,-0.67601 0.5655,-0.5481 1.34277,-0.69553 1.50048,-0.2846 0.0486,0.12667 -0.0624,0.77995 -0.24672,1.45172 -0.45533,1.6597 -0.44546,1.86098 0.0677,1.37892 0.22151,-0.2081 0.40275,-0.30587 0.40275,-0.21726 0,0.0886 -0.16778,0.31873 -0.37287,0.51139 -0.43719,0.41073 -1.23815,0.47723 -1.23815,0.1028 z m 2.3265,0.0188 c -0.22761,-0.16643 -0.31272,-0.42178 -0.31272,-0.93815 0,-1.25045 1.20531,-2.53855 2.37538,-2.53855 0.44183,0 0.60812,0.0782 0.68557,0.32221 0.22966,0.72357 -0.3386,1.3231 -1.60764,1.69611 -0.75701,0.2225 -0.91727,0.66061 -0.4097,1.11996 0.32514,0.29425 0.34666,0.29414 0.93343,-0.005 0.88747,-0.45198 0.88822,-0.45219 0.81354,-0.22812 -0.10554,0.31663 -1.11438,0.79989 -1.66983,0.79989 -0.27241,0 -0.63602,-0.1029 -0.80803,-0.22866 z m 1.68402,-2.17196 c 0.6796,-0.63483 0.67038,-1.33219 -0.0127,-0.96658 -0.29433,0.15752 -0.93492,1.05602 -0.93621,1.31314 -0.002,0.26859 0.47776,0.0936 0.94897,-0.34656 z m 1.63007,2.291 c 0.002,-0.0726 0.18235,-0.78399 0.40276,-1.58082 0.48595,-1.75677 0.48448,-1.69214 0.0383,-1.69518 -0.29311,-0.002 -0.31625,-0.0323 -0.12083,-0.15864 0.13291,-0.0859 0.47865,-0.15728 0.76832,-0.15863 0.49305,-0.002 0.51991,0.0258 0.42118,0.44056 l -0.10547,0.44304 0.48922,-0.45792 c 0.54464,-0.50978 1.08495,-0.52132 1.08495,-0.0232 0,0.24314 -0.11066,0.32158 -0.46074,0.32658 -0.57196,0.008 -0.98987,0.54584 -1.48066,1.90506 -0.26682,0.73893 -0.44288,1.0012 -0.69792,1.03969 -0.1876,0.0283 -0.34018,-0.008 -0.33909,-0.0805 z m 3.05896,-0.095 c 0,-0.11254 0.14499,-0.72784 0.3222,-1.36734 0.39946,-1.44147 0.40755,-1.80778 0.0403,-1.82253 -0.45367,-0.0182 0.26577,-0.28576 0.80551,-0.29956 0.48966,-0.0125 0.52288,0.0783 0.27188,0.74343 -0.16627,0.4406 -0.15345,0.4363 0.44983,-0.15061 0.65062,-0.63297 1.42291,-0.81432 1.59196,-0.37383 0.0486,0.12667 -0.0624,0.77995 -0.24672,1.45172 -0.4131,1.50576 -0.41373,1.72788 -0.004,1.23527 0.17647,-0.21191 0.36243,-0.34374 0.41323,-0.29294 0.16091,0.16091 -0.48758,0.91526 -0.87745,1.02067 -0.66685,0.18028 -0.74346,-0.13115 -0.37144,-1.50991 0.44621,-1.65362 0.44756,-1.88024 0.01,-1.64603 -0.43691,0.23383 -1.2011,1.45165 -1.52743,2.43412 -0.19052,0.57362 -0.34223,0.78215 -0.56905,0.78215 -0.17009,0 -0.30925,-0.0921 -0.30925,-0.20461 z m 7.00457,-0.33043 c -0.95919,-0.95918 -0.88587,-2.46978 0.17696,-3.6462 0.84247,-0.93251 1.45076,-1.15875 2.9682,-1.10398 l 1.2886,0.0465 -0.0931,0.56529 c -0.0512,0.31091 -0.12321,0.66051 -0.15999,0.77688 -0.0934,0.29571 -0.39133,0.075 -0.39133,-0.28995 0,-0.16556 -0.19822,-0.45693 -0.44049,-0.6475 -1.19695,-0.94152 -2.94267,0.70753 -2.94267,2.77972 0,1.17947 0.35508,1.64419 1.25633,1.64419 0.44367,0 0.83781,-0.13626 1.2571,-0.43459 0.68576,-0.48792 0.91854,-0.45983 0.45294,0.0547 -0.49206,0.54371 -1.11804,0.79 -2.00786,0.79 -0.72483,0 -0.89721,-0.0676 -1.36467,-0.53504 z m 4.63957,0.33367 c -0.55297,-0.71465 -0.30194,-1.77998 0.65471,-2.77839 0.67618,-0.7057 0.69685,-0.71407 1.74387,-0.70603 l 1.05959,0.008 -0.38995,1.53561 c -0.21446,0.84459 -0.35059,1.57496 -0.3025,1.62304 0.0481,0.0481 0.23285,-0.0442 0.41062,-0.20506 0.45326,-0.41021 0.40596,-0.0543 -0.0497,0.37378 -0.62901,0.59092 -1.1857,0.44757 -1.0833,-0.27897 0.0196,-0.13953 -0.16333,-0.0622 -0.47659,0.20138 -0.53954,0.454 -1.3051,0.56467 -1.56676,0.2265 z m 1.38658,-0.38369 c 0.41663,-0.29182 1.1423,-1.72116 1.14475,-2.25479 0.002,-0.18851 -0.1068,-0.4327 -0.23927,-0.54264 -0.55595,-0.46139 -1.69239,1.06881 -1.69239,2.27879 0,0.83585 0.17209,0.94927 0.78691,0.51864 z m 2.59688,0.22258 c 0,-0.19936 0.25313,-1.30493 0.56173,-2.45681 0.30863,-1.15189 0.56208,-2.14871 0.56325,-2.21517 0.002,-0.0665 -0.12476,-0.12194 -0.27982,-0.12329 -0.24093,-0.002 -0.24679,-0.0252 -0.0403,-0.15864 0.28993,-0.18737 1.12772,-0.21326 1.12772,-0.0348 0,0.0694 -0.28999,1.19984 -0.64442,2.512 -0.35442,1.31216 -0.64441,2.42885 -0.64441,2.48153 0,0.0527 0.21749,-0.11259 0.48331,-0.36726 0.57863,-0.55437 0.65121,-0.30876 0.0882,0.29868 -0.50872,0.54891 -1.21623,0.58606 -1.21533,0.0638 z m 2.31282,0.1202 c -0.0511,-0.13326 0.0599,-0.80879 0.24672,-1.50117 0.41184,-1.52633 0.41571,-1.63665 0.0577,-1.65103 -0.44651,-0.0179 0.26131,-0.28557 0.79224,-0.29956 l 0.42976,-0.0113 -0.41373,1.53307 c -0.41266,1.52908 -0.40371,2.0235 0.026,1.43582 0.12474,-0.1706 0.28135,-0.25564 0.34801,-0.18898 0.19695,0.19695 -0.60131,0.92545 -1.01406,0.92545 -0.20885,0 -0.42157,-0.10902 -0.47271,-0.24228 z m 4.61397,-0.0799 c -0.88595,-0.88596 0.21377,-3.094 1.65769,-3.32832 0.82054,-0.13315 1.31811,0.0328 1.53676,0.51274 0.26276,0.5767 0.23875,0.83835 -0.15071,1.64289 -0.63506,1.31182 -2.27339,1.94304 -3.04374,1.17269 z m 1.46,-0.005 c 0.72879,-0.39004 1.33672,-2.38894 0.90345,-2.97063 -0.21313,-0.28614 -0.27837,-0.29553 -0.65452,-0.0942 -0.82671,0.44244 -1.53713,2.53318 -1.03229,3.03802 0.23662,0.23661 0.38205,0.2416 0.78336,0.0268 z m 2.24737,0.21797 c 0.002,-0.0726 0.18235,-0.78399 0.40275,-1.58083 0.48595,-1.75677 0.48449,-1.69214 0.0383,-1.69517 -0.29311,-0.002 -0.31624,-0.0324 -0.12083,-0.15864 0.13291,-0.0859 0.47866,-0.15728 0.76832,-0.15864 0.49305,-0.002 0.51991,0.0258 0.42119,0.44057 l -0.10548,0.44303 0.48922,-0.45791 c 0.54464,-0.50978 1.08495,-0.52133 1.08495,-0.0232 0,0.24314 -0.11066,0.32158 -0.46074,0.32658 -0.57196,0.008 -0.98986,0.54584 -1.48066,1.90506 -0.26682,0.73893 -0.44287,1.0012 -0.69791,1.03969 -0.18761,0.0283 -0.34019,-0.008 -0.33909,-0.0806 z m 3.05895,-0.095 c 0,-0.11254 0.14499,-0.72784 0.32221,-1.36734 0.39945,-1.44147 0.40754,-1.80778 0.0403,-1.82253 -0.45366,-0.0182 0.26577,-0.28576 0.80552,-0.29956 0.48965,-0.0125 0.52287,0.0783 0.27187,0.74343 -0.16627,0.4406 -0.15345,0.4363 0.44984,-0.15061 0.65061,-0.63297 1.4229,-0.81432 1.59195,-0.37383 0.0486,0.12667 -0.0624,0.77995 -0.24671,1.45172 -0.4131,1.50576 -0.41373,1.72788 -0.004,1.23527 0.17647,-0.21191 0.36244,-0.34374 0.41323,-0.29294 0.16091,0.16091 -0.48758,0.91526 -0.87745,1.02067 -0.66685,0.18028 -0.74345,-0.13115 -0.37143,-1.50991 0.4462,-1.65362 0.44756,-1.88024 0.01,-1.64603 -0.43691,0.23383 -1.2011,1.45165 -1.52743,2.43412 -0.19052,0.57362 -0.34223,0.78215 -0.56904,0.78215 -0.1701,0 -0.30926,-0.0921 -0.30926,-0.20461 z m 4.24669,-0.0377 c -0.0511,-0.13326 0.0599,-0.80879 0.24671,-1.50117 0.41184,-1.52633 0.41571,-1.63665 0.0578,-1.65103 -0.44652,-0.0179 0.26131,-0.28557 0.79224,-0.29956 l 0.42975,-0.0113 -0.41372,1.53307 c -0.41267,1.52908 -0.40371,2.0235 0.026,1.43582 0.12475,-0.1706 0.28135,-0.25564 0.34802,-0.18898 0.19695,0.19695 -0.60132,0.92545 -1.01406,0.92545 -0.20886,0 -0.42158,-0.10902 -0.47271,-0.24228 z m 2.24216,0.0409 c -0.55297,-0.71465 -0.30194,-1.77998 0.65471,-2.77839 0.67618,-0.7057 0.69685,-0.71407 1.74387,-0.70603 l 1.05959,0.008 -0.38995,1.53561 c -0.21446,0.84459 -0.35059,1.57496 -0.3025,1.62304 0.0481,0.0481 0.23286,-0.0442 0.41062,-0.20506 0.45326,-0.41021 0.40596,-0.0543 -0.0497,0.37378 -0.62901,0.59092 -1.1857,0.44757 -1.0833,-0.27897 0.0197,-0.13953 -0.16333,-0.0622 -0.47659,0.20138 -0.53953,0.454 -1.30509,0.56467 -1.56676,0.2265 z m 1.38658,-0.38369 c 0.41663,-0.29182 1.1423,-1.72116 1.14475,-2.25479 0.002,-0.18851 -0.10679,-0.4327 -0.23927,-0.54264 -0.55595,-0.46139 -1.69238,1.06881 -1.69238,2.27879 0,0.83585 0.17209,0.94927 0.7869,0.51864 z m -191.82263,-0.0916 c -0.39741,-0.39741 -0.22538,-0.93744 0.3791,-1.19001 1.00432,-0.41963 1.50055,-0.45807 1.84849,-0.14318 0.17481,0.1582 0.31784,0.34371 0.31784,0.41226 0,0.28279 -0.53512,0.62315 -1.354,0.8612 -1.04088,0.30259 -0.95298,0.29819 -1.19143,0.0597 z m 40.7774,-0.29884 c -0.80547,-0.57069 -1.02645,-1.07919 -0.60341,-1.38852 0.42638,-0.31178 0.65653,-0.26861 1.43938,0.27 0.76756,0.5281 1.02026,1.01261 0.71804,1.37676 -0.29496,0.35541 -0.80832,0.2701 -1.55401,-0.25824 z m -36.84183,-0.88043 c -0.32033,-0.32033 -0.33892,-0.78088 -0.0415,-1.02773 0.12152,-0.10085 0.6079,-0.29828 1.08086,-0.43873 0.84297,-0.25033 0.86562,-0.24834 1.14844,0.10093 0.15868,0.19596 0.28851,0.41559 0.28851,0.48805 0,0.27101 -0.51878,0.6352 -1.14504,0.80384 -0.35598,0.0959 -0.7421,0.21068 -0.85804,0.25517 -0.11595,0.0445 -0.3289,-0.0372 -0.47324,-0.18153 z m 33.61977,-1.05378 c -0.74303,-0.52645 -0.98621,-1.00965 -0.68859,-1.36825 0.30932,-0.37272 0.82214,-0.26812 1.64488,0.33549 0.84942,0.62319 0.93851,0.90198 0.40719,1.27413 -0.47681,0.33397 -0.5763,0.31636 -1.36348,-0.24137 z m -29.8224,-0.18447 c -0.25793,-0.25793 -0.24489,-0.69104 0.0276,-0.9172 0.12151,-0.10085 0.60299,-0.29682 1.06995,-0.43549 0.80979,-0.24048 0.86361,-0.23755 1.16462,0.0635 0.44955,0.44956 0.15793,0.90188 -0.78965,1.22475 -0.90485,0.30831 -1.21512,0.3219 -1.47254,0.0645 z m 3.86646,-1.12772 c -0.39741,-0.39741 -0.22537,-0.93744 0.3791,-1.19001 1.00433,-0.41963 1.50055,-0.45807 1.8485,-0.14319 0.1748,0.1582 0.31783,0.34372 0.31783,0.41227 0,0.28279 -0.53512,0.62314 -1.354,0.8612 -1.04088,0.30259 -0.95297,0.29818 -1.19143,0.0597 z m 85.09129,-0.52392 c -0.12293,-0.32036 0.0592,-0.57158 0.41436,-0.57158 0.3167,0 0.4876,0.27656 0.37333,0.60414 -0.0969,0.27781 -0.6778,0.2538 -0.78769,-0.0326 z m 15.78808,0 c -0.12293,-0.32036 0.0592,-0.57158 0.41436,-0.57158 0.3167,0 0.48759,0.27656 0.37333,0.60414 -0.0969,0.27781 -0.6778,0.2538 -0.78769,-0.0326 z m 61.05797,0 c -0.12294,-0.32036 0.0592,-0.57158 0.41435,-0.57158 0.3167,0 0.4876,0.27656 0.37334,0.60414 -0.0969,0.27781 -0.6778,0.2538 -0.78769,-0.0326 z m 15.62697,0 c -0.12294,-0.32036 0.0592,-0.57158 0.41436,-0.57158 0.31669,0 0.48759,0.27656 0.37334,0.60414 -0.0969,0.27781 -0.67781,0.2538 -0.7877,-0.0326 z m -173.63081,-0.65645 c -0.31847,-0.31846 -0.33618,-0.77936 -0.0394,-1.02565 0.12152,-0.10085 0.603,-0.29682 1.06996,-0.4355 0.81013,-0.24058 0.86351,-0.23764 1.16531,0.0641 0.49073,0.49073 0.24948,0.89694 -0.72603,1.22244 -0.46426,0.15491 -0.92631,0.31614 -1.02679,0.35829 -0.10047,0.0421 -0.29983,-0.0405 -0.44303,-0.18373 z m 3.79944,-1.23617 c -0.10633,-0.10633 -0.19332,-0.36377 -0.19332,-0.57208 0,-0.28437 0.14828,-0.44072 0.59503,-0.62738 1.03538,-0.43261 1.547,-0.44948 1.89716,-0.0626 0.44866,0.49576 0.17654,0.82085 -0.97588,1.16584 -1.13996,0.34126 -1.08212,0.33705 -1.32299,0.0962 z m 3.86647,-1.12772 c -0.25928,-0.25928 -0.24518,-0.85191 0.0256,-1.07664 0.30581,-0.25381 1.70299,-0.6575 1.94895,-0.56312 0.11184,0.0429 0.29944,0.25757 0.41688,0.47701 0.28323,0.52923 0.0441,0.75554 -1.15963,1.09739 -1.08771,0.3089 -0.99328,0.30389 -1.23181,0.0654 z m 5.20362,-0.9344 c -0.0548,-0.0886 -0.34015,-0.1611 -0.63419,-0.1611 -0.67682,0 -0.95684,-0.32419 -0.81963,-0.94889 0.15139,-0.68926 0.38786,-0.81478 1.43582,-0.76213 1.03087,0.0518 1.19405,0.19008 1.19405,1.01192 0,0.723 -0.86832,1.35811 -1.17605,0.8602 z m 2.49384,-1.61711 c -0.29505,-0.55131 -0.0442,-0.9189 0.82406,-1.20727 0.92829,-0.30832 1.52906,-0.21713 1.67886,0.25484 0.14994,0.47242 -0.15083,0.7474 -1.1283,1.03156 -1.09611,0.31864 -1.16382,0.31475 -1.37462,-0.0791 z m -6.32003,-0.80279 c -0.78879,-0.49533 -0.99096,-0.9953 -0.57192,-1.41435 0.31203,-0.31203 0.74833,-0.22598 1.50951,0.29773 0.73406,0.50505 0.92041,1.00994 0.52039,1.40996 -0.29641,0.29641 -0.62371,0.23056 -1.45798,-0.29334 z m 10.3444,-0.3253 c -0.6068,-0.60681 -0.35876,-0.97776 0.91007,-1.361 0.94476,-0.28535 1.31681,-0.19754 1.45243,0.34282 0.12977,0.51704 0.009,0.62667 -1.11834,1.01451 -0.92208,0.31724 -0.93056,0.31726 -1.24416,0.004 z m 64.27707,0.18507 c -0.54132,-0.17631 -1.11007,-0.47997 -1.57584,-0.84136 l -0.37698,-0.2925 0.83975,-0.88792 0.83975,-0.88791 0.39309,0.30919 c 1.24264,0.97747 2.95059,0.68118 2.95059,-0.51185 0,-0.40909 -0.10527,-0.51349 -0.84579,-0.83873 -0.46518,-0.20432 -1.20827,-0.502 -1.6513,-0.66152 -2.2951,-0.82638 -2.85198,-3.19367 -1.13885,-4.84125 0.86338,-0.83033 1.78488,-1.10347 3.37798,-1.00123 0.91158,0.0585 1.36538,0.17888 1.93684,0.51378 l 0.74632,0.43737 -0.31181,0.43371 c -0.1715,0.23853 -0.52856,0.63957 -0.79346,0.89118 -0.44765,0.42518 -0.5084,0.44075 -0.86052,0.22055 -1.22654,-0.76707 -2.96767,-0.19792 -2.6318,0.8603 0.12122,0.38196 0.65729,0.67605 1.88052,1.03165 1.05008,0.30527 1.80945,0.77919 2.29084,1.4297 0.26315,0.35561 0.33678,0.69105 0.33594,1.53048 -0.001,1.33178 -0.41729,2.09008 -1.4919,2.71984 -0.62218,0.36462 -0.95976,0.44059 -2.12059,0.4772 -0.75934,0.024 -1.56609,-0.0169 -1.79278,-0.0907 z m 9.18286,0 c -0.54132,-0.17631 -1.11007,-0.47997 -1.57584,-0.84136 l -0.37698,-0.2925 0.83975,-0.88792 0.83976,-0.88791 0.39308,0.30919 c 1.24264,0.97747 2.95059,0.68118 2.95059,-0.51185 0,-0.40909 -0.10527,-0.51349 -0.84579,-0.83873 -0.46518,-0.20432 -1.20827,-0.502 -1.6513,-0.66152 -2.2951,-0.82638 -2.85198,-3.19367 -1.13885,-4.84125 0.86338,-0.83033 1.78488,-1.10347 3.37798,-1.00123 0.91158,0.0585 1.36538,0.17888 1.93684,0.51378 l 0.74632,0.43737 -0.31181,0.43371 c -0.1715,0.23853 -0.52856,0.63957 -0.79346,0.89118 -0.44765,0.42518 -0.5084,0.44075 -0.86051,0.22055 -1.22655,-0.76707 -2.96768,-0.19792 -2.63181,0.8603 0.12123,0.38196 0.65729,0.67605 1.88052,1.03165 1.05008,0.30527 1.80945,0.77919 2.29084,1.4297 0.26316,0.35561 0.33678,0.69105 0.33594,1.53048 -0.001,1.33178 -0.41729,2.09008 -1.4919,2.71984 -0.62217,0.36462 -0.95976,0.44059 -2.12059,0.4772 -0.75934,0.024 -1.56609,-0.0169 -1.79278,-0.0907 z m 10.80417,-0.12513 c -2.22598,-0.7788 -3.38403,-2.51251 -3.38403,-5.0662 0,-2.22609 0.8306,-3.70847 2.61058,-4.65911 0.87204,-0.46573 1.20843,-0.55108 2.39944,-0.60875 3.1769,-0.15385 5.25627,1.38632 5.77768,4.27949 0.48209,2.67497 -0.87543,5.16378 -3.27698,6.00786 -1.10675,0.38899 -3.0844,0.41138 -4.12669,0.0467 z m 2.97953,-2.00544 c 1.95648,-0.5405 2.75092,-3.36464 1.43268,-5.09296 -1.28364,-1.68293 -4.10153,-1.43414 -5.06114,0.44684 -0.67371,1.32058 -0.28851,3.40707 0.76524,4.14499 0.92956,0.65096 1.78127,0.80003 2.86322,0.50113 z m 9.90869,2.00544 c -2.22598,-0.7788 -3.38403,-2.51251 -3.38403,-5.0662 0,-2.22285 0.82609,-3.69978 2.61059,-4.66738 0.96191,-0.52157 1.09733,-0.54994 2.62526,-0.54994 1.738,0 2.37647,0.19707 3.24434,1.00138 l 0.44028,0.40804 -0.55349,0.47015 c -1.1563,0.98222 -1.2218,1.00768 -1.67507,0.65114 -0.82661,-0.65021 -2.28566,-0.58513 -3.21166,0.14326 -1.42462,1.12061 -1.43079,3.99828 -0.011,5.11512 1.04469,0.82175 2.28114,0.82403 3.21291,0.006 l 0.55339,-0.48588 0.89309,0.67428 c 0.4912,0.37086 0.89309,0.74137 0.89309,0.82336 0,0.29217 -0.81918,0.96113 -1.65147,1.34861 -1.01569,0.47287 -2.83388,0.53131 -3.98626,0.12813 z m 40.43681,0 c -2.22597,-0.7788 -3.38403,-2.51251 -3.38403,-5.0662 0,-2.22609 0.83062,-3.70847 2.61059,-4.65911 0.87204,-0.46573 1.20842,-0.55108 2.39944,-0.60875 3.1769,-0.15385 5.25627,1.38632 5.77768,4.27949 0.48208,2.67497 -0.87544,5.16378 -3.27698,6.00786 -1.10676,0.38899 -3.0844,0.41138 -4.1267,0.0467 z m 2.97953,-2.00544 c 1.95648,-0.5405 2.75093,-3.36464 1.43268,-5.09296 -1.28364,-1.68293 -4.10152,-1.43414 -5.06113,0.44684 -0.67372,1.32058 -0.28852,3.40707 0.76524,4.14499 0.92956,0.65096 1.78126,0.80003 2.86321,0.50113 z m -89.90735,1.67002 c 0.0567,-0.15506 1.02151,-2.40244 2.14409,-4.99419 l 2.04104,-4.71226 h 0.9844 0.98439 l 2.1865,4.99419 2.18651,4.99419 h -1.3223 -1.32229 l -0.41277,-1.00689 -0.41276,-1.00689 -1.91522,-0.0449 -1.91521,-0.045 -0.39336,1.05184 -0.39336,1.05183 H 394.496 c -1.14267,0 -1.26093,-0.0285 -1.16831,-0.28193 z m 6.14513,-4.02757 c -0.5439,-1.47753 -0.96844,-2.45682 -1.06507,-2.45682 -0.0643,0 -0.15262,0.12687 -0.19632,0.28193 -0.0437,0.15506 -0.26639,0.77128 -0.49487,1.36938 l -0.41543,1.08744 h 1.13773 c 1.0157,0 1.12661,-0.0302 1.03396,-0.28193 z m 48.07795,-0.68469 v -4.99419 h 1.12772 1.12772 v 4.99419 4.99419 h -1.12772 -1.12772 z m 4.41835,4.71226 c 0.0567,-0.15506 1.02151,-2.40244 2.14409,-4.99419 l 2.04105,-4.71226 h 0.98438 0.9844 l 2.18651,4.99419 2.1865,4.99419 h -1.3223 -1.3223 l -0.41276,-1.00689 -0.41276,-1.00689 -1.91522,-0.0449 -1.91521,-0.045 -0.39336,1.05184 -0.39336,1.05183 h -1.27135 c -1.14267,0 -1.26093,-0.0285 -1.16831,-0.28193 z m 6.14513,-4.02757 c -0.5439,-1.47753 -0.96844,-2.45682 -1.06508,-2.45682 -0.0643,0 -0.15262,0.12687 -0.19631,0.28193 -0.0437,0.15506 -0.2664,0.77128 -0.49487,1.36938 l -0.41544,1.08744 h 1.13774 c 1.01569,0 1.12661,-0.0302 1.03396,-0.28193 z m 6.83562,0.28193 v -4.02757 h -1.44992 -1.44993 v -0.96662 -0.96662 h 4.02757 4.02757 v 0.96662 0.96662 h -1.36937 -1.36937 v 4.02757 4.02757 h -1.20828 -1.20827 z m 7.24963,-0.96662 v -4.99419 h 1.12772 1.12772 v 4.99419 4.99419 h -1.12772 -1.12772 z m 18.04352,0 v -4.99419 h 1.57109 1.5711 l 2.01344,3.29711 2.01344,3.29712 0.0435,-3.29712 0.0435,-3.29711 h 1.20501 1.205 v 5.00003 5.00002 l -1.55477,-0.0461 -1.55478,-0.0461 -2.02976,-3.29174 -2.02977,-3.29175 -0.0435,3.33202 -0.0435,3.33202 h -1.205 -1.205 z m -194.57516,4.00902 c -0.87135,-0.43131 -1.76243,-1.46496 -1.98933,-2.30762 -0.45051,-1.67307 0.24593,-3.45496 1.70225,-4.35533 0.68622,-0.42426 0.9367,-0.48702 1.92897,-0.48332 0.74858,0.003 1.31053,0.096 1.6357,0.27146 0.58674,0.31652 1.39093,1.04824 1.63391,1.48667 0.15888,0.28669 0.22957,0.29556 0.85693,0.1076 0.62109,-0.18608 0.71272,-0.17591 0.99958,0.11095 0.43785,0.43784 0.15233,0.92929 -0.68578,1.18039 -0.59299,0.17767 -0.64191,0.23628 -0.64336,0.77092 -0.003,1.26475 -1.09853,2.80919 -2.36952,3.3418 -0.79739,0.33415 -2.26398,0.27513 -3.06935,-0.12352 z m 2.63652,-1.25478 c 0.9636,-0.43762 1.41248,-1.2413 1.31951,-2.36243 -0.11788,-1.42145 -1.14148,-2.26222 -2.58526,-2.12349 -2.37593,0.2283 -2.89313,3.48944 -0.71058,4.48039 0.83914,0.381 1.14768,0.38186 1.97633,0.006 z m -1.98061,-0.78431 c -0.53382,-0.41949 -0.73837,-1.10254 -0.52437,-1.75098 0.2325,-0.70448 0.71253,-1.02446 1.53687,-1.02446 1.41876,0 2.05639,1.57933 1.04568,2.59004 -0.55342,0.55341 -1.48328,0.63718 -2.05818,0.1854 z m 28.34132,1.97134 c -1.84691,-0.93467 -2.62759,-3.06998 -1.79437,-4.90788 0.44171,-0.97431 0.87925,-1.41977 1.83915,-1.87243 1.3388,-0.63135 2.90543,-0.41326 4.26935,0.59434 0.19324,0.14276 1.19595,-0.41088 4.99419,-2.75747 2.61382,-1.61485 4.84829,-3.02462 4.96549,-3.13282 0.17327,-0.15997 0.10556,-0.26016 -0.36248,-0.53631 -0.60273,-0.35562 -0.76524,-0.90186 -0.38224,-1.28485 0.32182,-0.32183 0.77711,-0.22081 1.56902,0.34812 l 0.75366,0.54145 4.90418,-3.04742 c 4.70401,-2.92304 4.90256,-3.06643 4.86448,-3.51312 -0.0426,-0.49967 0.42185,-0.96647 0.96161,-0.96647 0.23373,0 0.28701,-0.14066 0.2899,-0.76524 0.005,-1.02443 0.45038,-1.94645 1.28684,-2.66243 0.87796,-0.7515 1.56761,-0.97551 2.74179,-0.89058 1.75957,0.12727 3.2416,1.49452 3.47553,3.20634 0.20916,1.53067 -0.67737,3.23163 -2.05584,3.94447 -1.245,0.64381 -3.05644,0.40985 -4.18606,-0.54067 -0.37541,-0.31588 -0.55714,-0.37667 -0.75888,-0.25386 -6.78031,4.12776 -10.33151,6.42559 -10.04221,6.4979 0.1828,0.0457 0.66804,0.32067 1.07832,0.61106 0.82909,0.58684 0.88903,0.93287 0.22602,1.305 -0.38732,0.2174 -0.46489,0.19883 -1.1561,-0.27674 -0.81967,-0.56394 -1.06244,-1.03365 -0.73696,-1.42583 0.2208,-0.26605 -0.0247,-0.11851 -7.15493,4.29937 l -4.2893,2.65766 0.0925,0.99038 c 0.0517,0.55321 0.0161,1.20948 -0.0806,1.48673 -0.15925,0.45683 -0.13461,0.52371 0.30944,0.8399 0.88801,0.63232 0.27803,1.62123 -0.66691,1.08121 -0.47264,-0.2701 -0.49506,-0.26605 -1.30108,0.235 -1.1679,0.72601 -2.46746,0.79544 -3.65355,0.19519 z m 3.27033,-1.68921 c 0.52719,-0.51098 0.85113,-1.35757 0.73843,-1.92985 -0.0697,-0.35403 -0.11258,-0.36584 -0.48458,-0.13351 -0.21411,0.13371 -0.3379,0.37842 -0.3379,0.66796 0,0.29025 -0.1718,0.62875 -0.47091,0.92787 -0.61724,0.61724 -1.40087,0.63738 -2.09437,0.0538 -0.41378,-0.34817 -0.49567,-0.533 -0.49567,-1.11874 0,-0.50951 0.10649,-0.82545 0.38887,-1.15368 0.33567,-0.39018 0.50646,-0.45203 1.24854,-0.45216 0.47283,-8e-5 0.99772,-0.0817 1.16644,-0.1814 0.29091,-0.17189 0.28401,-0.19615 -0.13353,-0.46974 -0.57873,-0.37919 -1.66676,-0.36971 -2.32921,0.0203 -1.35878,0.79998 -1.58543,2.65923 -0.45449,3.72833 0.671,0.63431 0.8348,0.69013 1.8504,0.63057 0.71159,-0.0417 0.94219,-0.13833 1.40798,-0.58979 z m 28.55346,-17.39485 c 1.53695,-0.9371 1.53926,-2.94408 0.005,-4.08076 -0.56924,-0.42164 -1.67827,-0.42678 -2.40213,-0.0111 -0.57716,0.33141 -1.26914,1.48073 -1.26914,2.10791 0,0.33197 0.037,0.34833 0.40662,0.1799 0.22364,-0.10189 0.44904,-0.35429 0.50089,-0.56088 0.12695,-0.50579 0.95634,-1.18017 1.45143,-1.18017 0.9251,0 1.65965,0.73394 1.66505,1.66369 0.007,1.15154 -1.26117,1.92746 -2.26854,1.38833 -0.31539,-0.16879 -0.94994,-0.0729 -0.94994,0.14357 0,0.0621 0.19937,0.23654 0.44304,0.38762 0.60831,0.37715 1.7669,0.35891 2.41801,-0.0381 z m -10.13969,18.76826 c -0.24292,-0.53314 0.11747,-0.9405 1.06737,-1.20646 0.82133,-0.22995 1.32102,-0.11415 1.46501,0.33953 0.13795,0.43463 -0.25979,0.85111 -1.03445,1.08321 -0.94942,0.28445 -1.29235,0.23494 -1.49793,-0.21628 z m -42.30881,-4.6243 c -0.39742,-0.39742 -0.22538,-0.93745 0.3791,-1.19002 1.00432,-0.41963 1.50054,-0.45807 1.84849,-0.14318 0.17481,0.1582 0.31783,0.34372 0.31783,0.41226 0,0.28279 -0.53511,0.62315 -1.354,0.8612 -1.04088,0.30259 -0.95297,0.29819 -1.19142,0.0597 z m 3.86646,-1.12772 c -0.26005,-0.26006 -0.24489,-0.85215 0.0276,-1.07831 0.12152,-0.10085 0.6079,-0.29828 1.08086,-0.43873 0.84297,-0.25033 0.86562,-0.24834 1.14844,0.10093 0.15869,0.19597 0.28852,0.41559 0.28852,0.48805 0,0.28971 -0.52765,0.6281 -1.354,0.86832 -1.04088,0.30259 -0.95297,0.29819 -1.19143,0.0597 z m 40.53403,-0.36854 c -0.66266,-0.45029 -0.89585,-0.9497 -0.60633,-1.29856 0.2962,-0.35689 0.75118,-0.28237 1.52457,0.24974 0.69352,0.47715 1.00198,0.96976 0.8059,1.28703 -0.1842,0.29804 -1.12658,0.16784 -1.72414,-0.23821 z m -36.66756,-0.92029 c -0.25793,-0.25793 -0.24489,-0.69104 0.0276,-0.9172 0.12151,-0.10085 0.603,-0.29682 1.06996,-0.43549 0.80979,-0.24048 0.86361,-0.23755 1.16461,0.0634 0.44956,0.44956 0.15793,0.90188 -0.78964,1.22475 -0.90485,0.30831 -1.21513,0.3219 -1.47254,0.0645 z m 33.51623,-1.03831 c -0.80423,-0.48489 -1.06135,-1.11127 -0.59588,-1.45163 0.43062,-0.31488 0.65896,-0.27263 1.44339,0.26707 0.76757,0.5281 1.02026,1.01261 0.71804,1.37676 -0.282,0.33979 -0.78577,0.27795 -1.56555,-0.1922 z m -29.64976,-0.0894 c -0.10633,-0.10633 -0.19332,-0.36376 -0.19332,-0.57208 0,-0.28437 0.14828,-0.44071 0.59503,-0.62738 1.03538,-0.43261 1.547,-0.44948 1.89716,-0.0626 0.44866,0.49576 0.17654,0.82085 -0.97588,1.16584 -1.13996,0.34126 -1.08212,0.33705 -1.32299,0.0962 z m 3.9335,-1.18037 c -0.31847,-0.31846 -0.33619,-0.77936 -0.0394,-1.02565 0.12151,-0.10085 0.60299,-0.29682 1.06996,-0.43549 0.81013,-0.24059 0.86351,-0.23765 1.1653,0.0642 0.49073,0.49073 0.24948,0.89693 -0.72603,1.22243 -0.46426,0.15491 -0.92631,0.31614 -1.02678,0.35829 -0.10048,0.0421 -0.29984,-0.0405 -0.44303,-0.18372 z m 3.80749,-1.22383 c -0.52106,-0.53216 -0.0492,-1.13852 1.13168,-1.45437 0.71201,-0.19043 0.7888,-0.18086 1.10775,0.13809 0.44543,0.44543 0.30029,0.801 -0.45593,1.11697 -0.86522,0.36151 -1.54978,0.43801 -1.7835,0.19931 z m 4.04034,-1.07165 c -0.10373,-0.066 -0.23526,-0.30586 -0.29228,-0.53307 -0.12828,-0.51111 0.097,-0.71606 1.12821,-1.02641 0.85877,-0.25845 1.27629,-0.14233 1.44941,0.40313 0.15012,0.47296 -0.15035,0.74785 -1.12813,1.0321 -0.98887,0.28747 -0.91337,0.27936 -1.15721,0.12425 z m 3.62518,-1.5619 c -0.24942,-0.54741 0.006,-0.81493 1.07363,-1.12536 0.9142,-0.26576 1.28595,-0.217 1.4418,0.18913 0.18322,0.47745 -0.0847,0.82503 -0.83219,1.07973 -1.06559,0.36309 -1.46806,0.32878 -1.68324,-0.1435 z m 5.04377,-0.71245 c -0.12057,-0.0764 -0.36702,-0.10024 -0.54768,-0.053 -0.73099,0.19116 -1.06684,-1.20808 -0.39555,-1.64793 0.43995,-0.28827 1.99231,-0.1121 2.22694,0.25272 0.16077,0.24997 0.0309,1.08324 -0.21676,1.39065 -0.18627,0.23122 -0.74526,0.26138 -1.06695,0.0576 z m 2.86587,-1.47874 c -0.61279,-0.61279 -0.34949,-0.9785 0.99113,-1.37662 0.84297,-0.25033 0.86561,-0.24834 1.14844,0.10093 0.55242,0.68221 0.30173,1.0243 -1.00276,1.36842 -0.76518,0.20185 -0.84907,0.19501 -1.13681,-0.0927 z m -6.63395,-0.88009 c -0.76352,-0.56017 -0.93773,-0.96578 -0.57192,-1.33159 0.31203,-0.31204 0.74833,-0.22598 1.50951,0.29772 0.76837,0.52865 0.88851,0.91185 0.41909,1.33667 -0.39844,0.36059 -0.47611,0.34325 -1.35668,-0.3028 z m 63.02207,0.42583 c -0.54133,-0.17631 -1.11008,-0.47997 -1.57585,-0.84136 l -0.37698,-0.2925 0.83976,-0.88792 0.83975,-0.88791 0.39308,0.3092 c 1.24265,0.97746 2.9506,0.68118 2.9506,-0.51186 0,-0.40909 -0.10527,-0.51349 -0.84579,-0.83873 -0.46519,-0.20432 -1.20827,-0.502 -1.65131,-0.66152 -2.2951,-0.82637 -2.85197,-3.19367 -1.13884,-4.84124 0.86338,-0.83034 1.78488,-1.10347 3.37798,-1.00123 0.91157,0.0585 1.36538,0.17888 1.93684,0.51377 l 0.74632,0.43737 -0.31182,0.43371 c -0.17149,0.23854 -0.52855,0.63957 -0.79346,0.89119 -0.44764,0.42518 -0.50839,0.44075 -0.86051,0.22054 -1.22655,-0.76707 -2.96767,-0.19791 -2.63181,0.8603 0.12123,0.38197 0.6573,0.67605 1.88053,1.03165 1.05007,0.30527 1.80945,0.77919 2.29084,1.42971 0.26315,0.3556 0.33678,0.69104 0.33593,1.53047 -10e-4,1.33178 -0.41729,2.09008 -1.49189,2.71984 -0.62218,0.36462 -0.95976,0.44059 -2.12059,0.47721 -0.75934,0.0239 -1.56609,-0.0169 -1.79278,-0.0907 z m 19.78445,-0.0769 c -0.93821,-0.34935 -1.66311,-0.98761 -2.07752,-1.8292 -0.35974,-0.73055 -0.38144,-0.95973 -0.42752,-4.51526 l -0.0486,-3.74564 h 1.21655 1.21655 v 3.39858 c 0,3.80317 0.0714,4.1022 1.09603,4.5884 1.07633,0.51076 2.42872,-0.19678 2.6686,-1.39615 0.056,-0.28005 0.10184,-1.87756 0.10184,-3.55001 v -3.04081 h 1.13826 1.13825 l -0.0508,3.82619 c -0.0447,3.36519 -0.0871,3.89413 -0.35159,4.39005 -0.76624,1.43646 -1.71546,1.96881 -3.64624,2.04494 -0.90033,0.0355 -1.57642,-0.0231 -1.97384,-0.17109 z m -9.78667,-4.12929 v -4.02757 h -1.44993 -1.44992 v -0.96662 -0.96661 h 4.02757 4.02757 v 0.96661 0.96662 h -1.36937 -1.36938 v 4.02757 4.02757 h -1.20827 -1.20827 z m 18.68793,-0.98256 v -5.01013 l 2.77902,0.0711 c 3.36624,0.0861 3.9901,0.26482 5.22116,1.49588 0.96726,0.96726 1.34797,1.97225 1.33671,3.52864 -0.0167,2.30764 -1.33919,3.98219 -3.68726,4.6688 -0.62542,0.18289 -1.55602,0.25588 -3.26233,0.25588 h -2.3873 z m 4.66875,2.74033 c 1.4673,-0.31468 2.25867,-1.3155 2.25867,-2.85649 0,-1.57768 -1.19602,-2.56355 -3.30335,-2.72293 l -1.20753,-0.0913 v 2.9231 2.92311 h 0.71703 c 0.39437,0 1.0852,-0.079 1.53518,-0.17546 z m 7.09175,-2.72439 v -4.99418 h 3.54426 3.54427 v 1.04717 1.04716 h -2.33599 -2.336 v 0.88607 0.88607 h 2.17489 2.17489 v 1.04716 1.04717 h -2.17489 -2.17489 v 0.96662 0.96662 h 2.41655 2.41654 v 1.04717 1.04716 h -3.62481 -3.62482 z m 9.98838,0 v -4.99418 h 1.57109 1.5711 l 2.01344,3.29711 2.01344,3.29711 0.0435,-3.29711 0.0435,-3.29711 h 1.205 1.20501 v 5.00002 5.00002 l -1.55477,-0.0461 -1.55477,-0.0461 -2.02977,-3.29174 -2.02977,-3.29175 -0.0435,3.33202 -0.0436,3.33202 h -1.205 -1.205 z m 14.49925,0.96662 v -4.02757 h -1.44992 -1.44993 v -0.96662 -0.96661 h 4.02757 4.02757 v 0.96661 0.96662 h -1.36937 -1.36938 v 4.02757 4.02757 h -1.20827 -1.20827 z m -117.513,3.4522 c -0.50495,-0.50495 -0.16479,-1.0033 0.92339,-1.35281 0.75541,-0.24263 1.34547,-0.11191 1.48543,0.32907 0.14065,0.44315 -0.25082,0.85704 -1.03196,1.09108 -0.824,0.24688 -1.07491,0.2346 -1.37686,-0.0673 z m -46.80474,-0.63524 c -2.11649,-0.95661 -2.98073,-3.14437 -2.04013,-5.16436 0.89333,-1.91848 3.07449,-2.68806 5.03339,-1.77595 0.45403,0.21141 1.0242,0.63338 1.26704,0.93772 0.42497,0.5326 0.46508,0.54707 1.06944,0.38575 0.54814,-0.1463 0.66938,-0.12612 0.9544,0.1589 0.18423,0.18424 0.2848,0.43514 0.2308,0.57585 -0.0998,0.26002 -0.74257,0.61521 -1.11335,0.61521 -0.14694,0 -0.23649,0.30115 -0.28373,0.95414 -0.14108,1.95052 -1.579,3.36906 -3.54563,3.49786 -0.69886,0.0458 -1.1891,-0.0119 -1.57223,-0.18512 z m 3.00696,-1.8894 c 1.48284,-1.48284 0.44045,-4.04221 -1.64632,-4.04221 -1.86758,0 -3.01748,2.05191 -2.03803,3.63669 0.48665,0.78742 1.194,1.11399 2.25253,1.03997 0.72776,-0.0509 0.94413,-0.14677 1.43182,-0.63445 z m -2.70428,-0.40839 c -1.18741,-1.06095 -0.13509,-3.08916 1.40255,-2.70323 1.20539,0.30253 1.60381,1.79252 0.71657,2.67976 -0.63373,0.63373 -1.4263,0.64251 -2.11912,0.0235 z m 28.60814,2.16907 c -1.48761,-0.72053 -2.24144,-2.01864 -2.1486,-3.69992 l 0.0543,-0.98254 -3.1415,-1.98484 c -2.28207,-1.44184 -3.23748,-1.96234 -3.49233,-1.9026 -0.36894,0.0865 -0.85745,-0.27243 -0.85745,-0.62998 0,-0.17619 -14.22597,-9.28096 -14.91346,-9.54477 -0.13563,-0.052 -0.40602,0.0511 -0.60088,0.22911 -0.67396,0.61586 -1.44849,0.90055 -2.44862,0.90001 -3.31426,-0.002 -5.04356,-3.94117 -2.77086,-6.31212 0.80665,-0.84153 1.55672,-1.15388 2.77086,-1.15388 1.28642,0 2.05885,0.34997 2.87381,1.30207 0.54016,0.63105 0.60045,0.659 1.06902,0.49566 0.27312,-0.0952 0.58671,-0.13852 0.69688,-0.0962 0.30068,0.11538 0.60268,0.67163 0.5041,0.92852 -0.0923,0.24054 -0.74736,0.59205 -1.10332,0.59205 -0.28605,0 -0.4592,1.62235 -0.19922,1.86667 0.10246,0.0963 3.61407,2.3308 7.80356,4.96558 6.58675,4.1424 7.67848,4.77704 8.06975,4.69111 0.4843,-0.10637 0.81775,0.14429 0.89416,0.67217 0.026,0.17938 1.09379,0.95507 2.80026,2.03417 l 2.7583,1.74423 0.61009,-0.47577 c 1.19236,-0.92985 2.63698,-1.09438 3.99325,-0.45479 0.97995,0.46212 1.40638,0.90652 1.86524,1.94384 0.29125,0.65843 0.33383,0.97177 0.25186,1.85366 -0.0878,0.94466 -0.0635,1.08325 0.22123,1.26106 0.38351,0.2395 0.41916,0.88068 0.0653,1.17436 -0.19731,0.16375 -0.36203,0.17072 -0.73231,0.0309 -0.42209,-0.15932 -0.56953,-0.12326 -1.26569,0.3095 -1.11765,0.69476 -2.50302,0.78746 -3.62768,0.24273 z m 2.56178,-1.23228 c 0.64352,-0.24467 1.38524,-1.39077 1.38524,-2.14047 0,-1.37633 -1.00626,-2.43096 -2.3179,-2.42931 -0.65322,8.1e-4 -1.70967,0.41903 -1.70967,0.6768 0,0.27169 0.70504,0.45291 1.13325,0.29129 0.55083,-0.20792 1.21604,-0.0305 1.69992,0.45338 0.91086,0.91086 0.17661,2.65897 -1.11684,2.65897 -0.67637,0 -1.46942,-0.60281 -1.62888,-1.23812 -0.1152,-0.459 -0.5583,-0.88293 -0.77979,-0.74604 -0.188,0.11618 0.0285,1.00875 0.38852,1.60204 0.53149,0.87581 1.88314,1.27562 2.94615,0.87146 z m -28.8103,-18.12265 c 0.38828,-0.25441 0.39823,-0.28923 0.1372,-0.4801 -0.23059,-0.16861 -0.39425,-0.16148 -0.90584,0.0395 -0.5675,0.22292 -0.67602,0.22065 -1.19095,-0.0249 -1.60709,-0.76637 -1.04083,-3.00564 0.76005,-3.00564 0.52344,0 1.42995,0.74638 1.42995,1.17735 0,0.12954 0.18125,0.35428 0.40276,0.49942 l 0.40276,0.2639 v -0.57558 c 0,-2.73943 -3.91711,-3.13849 -4.65281,-0.47402 -0.28443,1.03012 0.33152,2.29985 1.33654,2.75518 0.61253,0.27752 1.71926,0.19255 2.28034,-0.17508 z m 48.00034,18.9826 c -0.48857,-0.48857 -0.24023,-0.89927 0.78291,-1.29475 1.02798,-0.39736 1.44176,-0.32762 1.6331,0.27523 0.15011,0.47296 -0.15036,0.74785 -1.12814,1.0321 -1.04664,0.30426 -0.97029,0.30501 -1.28787,-0.0126 z m -42.74352,-4.76467 c -0.26005,-0.26005 -0.24489,-0.85215 0.0276,-1.0783 0.12152,-0.10085 0.6079,-0.29828 1.08086,-0.43873 0.84297,-0.25034 0.86562,-0.24835 1.14844,0.10093 0.15869,0.19596 0.28852,0.41558 0.28852,0.48804 0,0.28972 -0.52765,0.6281 -1.354,0.86833 -1.04088,0.30259 -0.95298,0.29818 -1.19143,0.0597 z m 3.86647,-1.28882 c -0.25793,-0.25793 -0.24489,-0.69105 0.0276,-0.9172 0.12151,-0.10085 0.603,-0.29682 1.06996,-0.4355 0.80979,-0.24048 0.86361,-0.23755 1.16461,0.0634 0.44956,0.44956 0.15793,0.90188 -0.78964,1.22475 -0.90485,0.30832 -1.21513,0.3219 -1.47254,0.0645 z m 3.86647,-1.12772 c -0.39742,-0.39742 -0.22538,-0.93745 0.3791,-1.19001 1.00432,-0.41964 1.50055,-0.45807 1.84849,-0.14319 0.17481,0.1582 0.31783,0.34372 0.31783,0.41226 0,0.28279 -0.53511,0.62315 -1.354,0.86121 -1.04087,0.30259 -0.95297,0.29818 -1.19142,0.0597 z m 7.74099,-2.4042 c -0.52106,-0.53216 -0.0492,-1.13852 1.13168,-1.45437 0.70518,-0.18861 0.7906,-0.17906 1.09164,0.12198 0.41892,0.41892 0.28196,0.77102 -0.43161,1.10963 -0.7889,0.37436 -1.55055,0.46905 -1.79171,0.22276 z m 3.85841,-1.14007 c -0.25927,-0.25927 -0.24518,-0.8519 0.0256,-1.07664 0.30582,-0.2538 1.703,-0.65749 1.94895,-0.56311 0.11185,0.0429 0.29945,0.25757 0.41688,0.477 0.28324,0.52924 0.0441,0.75554 -1.15963,1.0974 -1.0877,0.3089 -0.99327,0.30389 -1.23181,0.0654 z m 3.87452,-1.27647 c -0.26508,-0.27073 -0.25603,-0.70083 0.0196,-0.92955 0.12152,-0.10085 0.603,-0.29682 1.06996,-0.43549 0.81282,-0.24138 0.86275,-0.23841 1.17083,0.0697 0.42435,0.42434 0.2674,0.78509 -0.47684,1.09605 -0.86522,0.36151 -1.54978,0.43802 -1.7835,0.19932 z m 3.85842,-1.14007 c -0.10633,-0.10633 -0.19333,-0.36376 -0.19333,-0.57208 0,-0.28437 0.14829,-0.44071 0.59504,-0.62738 1.03537,-0.4326 1.547,-0.44948 1.89715,-0.0626 0.44866,0.49577 0.17655,0.82085 -0.97587,1.16584 -1.13996,0.34126 -1.08212,0.33706 -1.32299,0.0962 z m 3.9263,-1.18756 c -0.312,-0.312 -0.32662,-0.77413 -0.0322,-1.01846 0.12152,-0.10085 0.6079,-0.29828 1.08086,-0.43873 0.84297,-0.25034 0.86562,-0.24835 1.14844,0.10093 0.55559,0.68612 0.30371,1.02263 -1.0315,1.37804 -0.47018,0.12516 -0.86782,0.22842 -0.88364,0.22947 -0.0158,0.001 -0.14269,-0.11201 -0.28193,-0.25125 z m 3.7454,-1.43776 c -0.24292,-0.53315 0.11748,-0.9405 1.06737,-1.20646 0.82134,-0.22996 1.32103,-0.11415 1.46502,0.33953 0.13795,0.43463 -0.25979,0.85111 -1.03446,1.08321 -0.94941,0.28445 -1.29234,0.23494 -1.49793,-0.21628 z m 58.5102,-0.0179 c -2.24454,-0.81585 -3.38402,-2.52509 -3.38402,-5.07606 0,-2.22285 0.82608,-3.69978 2.61058,-4.66738 0.987,-0.53517 1.06397,-0.54994 2.86691,-0.54994 1.59813,0 1.96732,0.0519 2.68699,0.37738 1.40377,0.63497 1.44322,0.76892 0.52076,1.76831 l -0.79091,0.85687 -0.46655,-0.33222 c -0.74344,-0.52937 -1.96806,-0.75043 -2.79199,-0.50399 -1.51812,0.45408 -2.21925,1.42383 -2.21925,3.0695 0,2.28735 1.68606,3.58511 3.95758,3.04614 l 0.95605,-0.22684 0.0487,-0.84579 0.0487,-0.84579 h -0.89448 -0.89449 v -1.04717 -1.04717 h 2.01769 2.01768 l -0.0442,2.69775 -0.0442,2.69776 -0.96661,0.38942 c -1.27829,0.51497 -4.11918,0.64479 -5.23498,0.23922 z m 45.22843,0.0384 c -0.93821,-0.34935 -1.66311,-0.98761 -2.07752,-1.82919 -0.35974,-0.73056 -0.38144,-0.95974 -0.42753,-4.51526 l -0.0486,-3.74565 h 1.21655 1.21655 v 3.39858 c 0,3.80317 0.0714,4.1022 1.09602,4.5884 1.07634,0.51076 2.42873,-0.19678 2.6686,-1.39615 0.056,-0.28005 0.10184,-1.87756 0.10184,-3.55001 V 193.679 h 1.13826 1.13826 l -0.0508,3.8262 c -0.0447,3.36519 -0.0871,3.89413 -0.35159,4.39005 -0.76624,1.43645 -1.71546,1.96881 -3.64625,2.04494 -0.90032,0.0355 -1.57642,-0.0231 -1.97383,-0.17109 z m -36.04643,-5.09591 V 193.679 l 2.53737,9.7e-4 c 2.78387,9.7e-4 3.48864,0.12586 4.22973,0.74945 0.70581,0.59389 0.96583,1.19706 0.96583,2.2404 0,1.1806 -0.4724,2.05991 -1.31503,2.44771 -0.33544,0.15438 -0.61176,0.35555 -0.61405,0.44703 -0.002,0.0915 0.53292,1.05207 1.18934,2.13462 l 1.1935,1.9682 h -1.39932 -1.39931 l -1.04273,-2.01093 c -0.94892,-1.83001 -1.08258,-2.01118 -1.48576,-2.01378 l -0.44303,-0.003 v 2.01378 2.01379 h -1.20827 -1.20827 z m 4.7577,-1.20005 c 0.45025,-0.18812 0.55821,-0.32102 0.55622,-0.68468 -10e-4,-0.2482 -0.0572,-0.53734 -0.1241,-0.64256 -0.20177,-0.31731 -0.9711,-0.53366 -1.8977,-0.53366 h -0.87558 v 1.04717 1.04717 h 0.89124 c 0.49018,0 1.14265,-0.10505 1.44992,-0.23344 z m 4.49373,5.91231 c 0.0567,-0.15506 1.02151,-2.40245 2.14409,-4.99419 l 2.04104,-4.71226 h 0.9844 0.98439 l 2.1865,4.99419 2.18651,4.99419 h -1.3223 -1.32229 l -0.41277,-1.00689 -0.41276,-1.0069 -1.91522,-0.0449 -1.91521,-0.0449 -0.39336,1.05184 -0.39336,1.05183 h -1.27135 c -1.14267,0 -1.26093,-0.0285 -1.16831,-0.28193 z m 6.14513,-4.02757 c -0.5439,-1.47753 -0.96844,-2.45682 -1.06507,-2.45682 -0.0643,0 -0.15262,0.12687 -0.19632,0.28193 -0.0437,0.15506 -0.26639,0.77128 -0.49488,1.36938 l -0.41542,1.08744 h 1.13773 c 1.0157,0 1.12661,-0.0302 1.03396,-0.28193 z m 6.35232,-0.70063 v -5.01013 l 2.77902,0.0711 c 3.36624,0.0861 3.9901,0.26482 5.22116,1.49588 0.96726,0.96726 1.34797,1.97225 1.33671,3.52865 -0.0167,2.30763 -1.33919,3.98218 -3.68726,4.6688 -0.62542,0.18288 -1.55602,0.25587 -3.26233,0.25587 h -2.3873 z m 4.66875,2.74033 c 1.4673,-0.31468 2.25867,-1.3155 2.25867,-2.85649 0,-1.57768 -1.19602,-2.56355 -3.30335,-2.72293 l -1.20753,-0.0913 v 2.9231 2.92311 h 0.71703 c 0.39437,0 1.0852,-0.079 1.53518,-0.17546 z m 17.63201,1.98787 c 0.0567,-0.15506 1.02151,-2.40245 2.14409,-4.99419 l 2.04104,-4.71226 h 0.98439 0.98441 l 2.1865,4.99419 2.1865,4.99419 h -1.3223 -1.3223 l -0.41276,-1.00689 -0.41276,-1.0069 -1.91522,-0.0449 -1.91521,-0.0449 -0.39336,1.05184 -0.39336,1.05183 h -1.27135 c -1.14267,0 -1.26093,-0.0285 -1.16831,-0.28193 z m 6.14513,-4.02757 c -0.5439,-1.47753 -0.96844,-2.45682 -1.06508,-2.45682 -0.0643,0 -0.15262,0.12687 -0.19631,0.28193 -0.0437,0.15506 -0.2664,0.77128 -0.49487,1.36938 l -0.41543,1.08744 h 1.13773 c 1.01569,0 1.12661,-0.0302 1.03396,-0.28193 z m 6.83563,0.28193 v -4.02757 h -1.44993 -1.44993 v -0.96662 -0.96662 h 4.02758 4.02757 v 0.96662 0.96662 h -1.36938 -1.36937 v 4.02757 4.02757 h -1.20827 -1.20827 z m 7.24962,-0.96662 V 193.679 h 3.54426 3.54427 v 1.04717 1.04717 h -2.33599 -2.336 v 0.88607 0.88606 h 2.17489 2.17489 v 1.04717 1.04717 h -2.17489 -2.17489 v 0.96662 0.96661 h 2.41655 2.41654 v 1.04717 1.04717 h -3.62481 -3.62482 z m -128.10137,3.9573 c -0.26825,-0.58874 -0.0995,-0.80509 0.92146,-1.18118 1.00909,-0.37172 1.41541,-0.29759 1.60267,0.2924 0.15011,0.47296 -0.15036,0.74785 -1.12814,1.0321 -1.12013,0.32563 -1.18537,0.31894 -1.39599,-0.14332 z m -17.81304,-0.66256 c -2.4351,-1.21346 -2.79389,-4.35447 -0.71222,-6.23513 1.35798,-1.22686 3.41636,-1.23504 4.83677,-0.0192 l 0.62258,0.53291 10.72085,-6.64041 c 8.87277,-5.49572 10.66696,-6.66575 10.40824,-6.78742 -0.33297,-0.15658 -0.56482,-0.77219 -0.39457,-1.04766 0.0564,-0.0912 0.38943,-0.25179 0.74013,-0.35686 0.58869,-0.17638 0.63772,-0.23548 0.63855,-0.76968 0.002,-1.38221 0.8591,-2.76823 2.10433,-3.40349 1.16182,-0.59272 3.10614,-0.38016 4.04541,0.44226 0.16683,0.14608 0.40262,0.19477 0.61568,0.12715 0.59753,-0.18965 1.32263,0.80813 0.81518,1.12175 -0.0856,0.0529 -0.1114,0.57109 -0.0594,1.1915 0.11314,1.34949 -0.11127,2.09881 -0.88508,2.95532 -1.2625,1.39744 -3.06395,1.73031 -4.66075,0.86122 l -0.83653,-0.4553 -3.10724,1.92185 c -1.70899,1.05702 -6.78631,4.20253 -11.28294,6.99003 l -8.17569,5.06818 -3.2e-4,1.09386 c -3.2e-4,1.25047 -0.30491,1.99066 -1.15416,2.80472 -1.14469,1.09725 -2.8161,1.33335 -4.27887,0.60442 z m 2.88116,-1.30034 c 0.23584,-0.1187 0.57829,-0.40587 0.761,-0.63814 0.32764,-0.41652 0.62009,-1.45274 0.45625,-1.61658 -0.162,-0.16199 -0.7425,0.3298 -0.83788,0.70984 -0.1626,0.64783 -0.85652,1.16151 -1.56906,1.16151 -1.69051,0 -2.17745,-2.26331 -0.64355,-2.99119 0.46954,-0.22281 0.66926,-0.23665 1.185,-0.0821 0.4463,0.13372 0.71091,0.13733 0.94344,0.0129 0.42713,-0.2286 0.41358,-0.27232 -0.20043,-0.64669 -1.38695,-0.84565 -3.30539,-0.0124 -3.60114,1.56413 -0.37464,1.99697 1.65406,3.45867 3.50637,2.52637 z m 28.70893,-17.8435 c 1.29268,-0.54012 1.99043,-2.66026 1.01626,-3.08794 -0.21577,-0.0947 -0.37001,-0.32861 -0.40223,-0.6099 -0.0999,-0.87239 -1.83896,-1.18606 -2.86142,-0.51611 -0.6387,0.41849 -1.03207,1.20307 -1.03274,2.05981 -4.8e-4,0.5208 0.0663,0.76524 0.20883,0.76524 0.3564,0 0.59608,-0.36347 0.59608,-0.90396 0,-0.68984 0.76139,-1.35148 1.55523,-1.35148 0.80873,0 1.50572,0.72341 1.50572,1.56279 0,0.34153 -0.10897,0.77654 -0.24215,0.96668 -0.28086,0.40099 -1.23073,0.75815 -1.65673,0.62294 -0.1611,-0.0511 -0.4341,0.0111 -0.60666,0.13834 -0.30547,0.2252 -0.30311,0.23559 0.089,0.3933 0.57399,0.23087 1.21658,0.21693 1.83081,-0.0397 z m -2.19482,19.17292 c -0.74182,-0.27673 -1.02396,-0.47912 -1.66671,-1.19557 -0.4774,-0.53215 -0.52593,-0.54913 -1.06286,-0.37193 -0.64455,0.21272 -1.04308,0.11129 -1.17316,-0.29857 -0.15302,-0.4821 0.0839,-0.80215 0.73915,-0.99846 0.59624,-0.17864 0.62782,-0.22116 0.62931,-0.84727 0.002,-0.86622 0.62077,-2.16776 1.30451,-2.74424 0.86131,-0.7262 1.52558,-0.93556 2.7491,-0.86642 0.90883,0.0514 1.20864,0.14665 1.82243,0.57929 0.62244,0.43873 0.78196,0.48829 1.04432,0.32444 0.59178,-0.36957 1.27414,0.63411 0.77229,1.13595 -0.12656,0.12657 -0.20038,0.68901 -0.20138,1.53426 -0.002,1.20257 -0.0498,1.41246 -0.48913,2.12386 -0.91753,1.48559 -2.90416,2.20799 -4.46787,1.62466 z m 2.8646,-1.87727 c 0.82634,-0.80093 0.99962,-2.00092 0.38485,-2.6652 -0.16928,-0.18292 -0.30779,-0.45292 -0.30779,-0.6 0,-0.6866 -1.87919,-1.0482 -2.84403,-0.54726 -1.26944,0.65909 -1.59457,2.63038 -0.60613,3.67504 0.63279,0.66879 0.96354,0.79163 1.96513,0.72981 0.7096,-0.0438 0.94348,-0.1422 1.40797,-0.59239 z m -2.67408,-0.46753 c -1.0027,-1.0027 -0.32931,-2.75114 1.05956,-2.75114 0.4358,0 0.71091,0.12227 1.05956,0.47091 1.00269,1.0027 0.32931,2.75114 -1.05956,2.75114 -0.43581,0 -0.71092,-0.12227 -1.05956,-0.47091 z m -7.90879,1.68395 c -0.24942,-0.54741 0.006,-0.81493 1.07363,-1.12536 0.9142,-0.26576 1.28596,-0.217 1.4418,0.18913 0.18322,0.47745 -0.0847,0.82503 -0.83219,1.07973 -1.06559,0.36309 -1.46806,0.32878 -1.68324,-0.1435 z m -42.47179,-4.46732 c -0.25793,-0.25792 -0.24489,-0.69104 0.0276,-0.9172 0.12152,-0.10084 0.603,-0.29681 1.06996,-0.43549 0.80979,-0.24048 0.86361,-0.23755 1.16461,0.0634 0.44956,0.44956 0.15793,0.90188 -0.78964,1.22475 -0.90485,0.30832 -1.21513,0.3219 -1.47254,0.0645 z m 3.86647,-1.12772 c -0.39741,-0.39741 -0.22538,-0.93744 0.3791,-1.19001 1.00432,-0.41963 1.50055,-0.45807 1.84849,-0.14318 0.17481,0.1582 0.31784,0.34372 0.31784,0.41226 0,0.28279 -0.53512,0.62315 -1.354,0.8612 -1.04088,0.30259 -0.95298,0.29819 -1.19143,0.0597 z m 52.65482,-0.3628 c -0.3062,-0.36896 -0.0466,-0.85066 0.75601,-1.40288 0.69121,-0.47557 0.76879,-0.49413 1.15611,-0.27674 0.66365,0.37251 0.59897,0.70879 -0.25713,1.33679 -0.8322,0.61048 -1.34475,0.71665 -1.65499,0.34283 z m -48.71925,-0.81549 c -0.32033,-0.32033 -0.33892,-0.78088 -0.0415,-1.02773 0.12152,-0.10085 0.6079,-0.29828 1.08086,-0.43873 0.84297,-0.25033 0.86562,-0.24834 1.14844,0.10093 0.15868,0.19597 0.28851,0.41559 0.28851,0.48805 0,0.27101 -0.51878,0.6352 -1.14504,0.80384 -0.35598,0.0959 -0.7421,0.21068 -0.85804,0.25518 -0.11595,0.0445 -0.3289,-0.0372 -0.47324,-0.18154 z m 52.13627,-1.04994 c -0.69143,-0.27793 -0.32807,-0.97823 0.83217,-1.60383 0.85019,-0.45842 1.26721,-0.34437 1.35279,0.36999 0.0419,0.35003 -0.0791,0.50153 -0.72497,0.90703 -0.84021,0.52756 -0.91749,0.54486 -1.45999,0.32681 z m -48.33085,-0.17596 c -0.52106,-0.53216 -0.0492,-1.13852 1.13168,-1.45437 0.70518,-0.18861 0.7906,-0.17906 1.09164,0.12198 0.41892,0.41891 0.28196,0.77102 -0.4316,1.10963 -0.78891,0.37436 -1.55056,0.46905 -1.79172,0.22276 z m 3.83355,-1.17953 c -0.41939,-0.50534 -0.13403,-0.93984 0.87287,-1.32906 0.52843,-0.20426 0.9787,-0.37139 1.00061,-0.37139 0.0923,0 0.69681,0.71524 0.69681,0.82439 0,0.27753 -0.54092,0.61942 -1.354,0.85579 -1.0537,0.30632 -0.97991,0.30509 -1.21629,0.0203 z m 47.7846,-0.70624 c -0.43459,-0.48022 -0.31152,-0.80432 0.49862,-1.31306 0.83427,-0.52389 1.16157,-0.58974 1.45798,-0.29334 0.41904,0.41905 0.21687,0.91902 -0.57192,1.41435 -0.89944,0.56482 -1.03083,0.58304 -1.38468,0.19205 z m -43.88521,-0.53078 c -0.26509,-0.27072 -0.25604,-0.70082 0.0196,-0.92954 0.12151,-0.10085 0.60299,-0.29682 1.06996,-0.43549 0.81281,-0.24138 0.86275,-0.23841 1.17082,0.0697 0.42435,0.42434 0.26741,0.78509 -0.47684,1.09605 -0.86522,0.36151 -1.54978,0.43802 -1.7835,0.19932 z m 3.85841,-1.14006 c -0.10633,-0.10633 -0.19332,-0.36376 -0.19332,-0.57208 0,-0.28437 0.14828,-0.44072 0.59503,-0.62738 1.03538,-0.43261 1.547,-0.44948 1.89716,-0.0626 0.44866,0.49576 0.17654,0.82085 -0.97588,1.16584 -1.13996,0.34126 -1.08212,0.33705 -1.32299,0.0962 z m 43.14507,-0.36844 c -0.34644,-0.41744 -0.0519,-0.98923 0.75224,-1.4605 0.69427,-0.40687 0.78931,-0.4241 1.16776,-0.21169 0.66041,0.37068 0.59467,0.7078 -0.26033,1.335 -0.83596,0.61323 -1.34478,0.71661 -1.65967,0.33719 z m -39.2786,-0.75928 c -0.25928,-0.25928 -0.24518,-0.85191 0.0256,-1.07664 0.30581,-0.2538 1.70299,-0.6575 1.94895,-0.56312 0.11184,0.0429 0.29944,0.25758 0.41688,0.47701 0.28323,0.52923 0.0441,0.75554 -1.15963,1.09739 -1.08771,0.30891 -0.99328,0.3039 -1.23181,0.0654 z m 42.50534,-1.16832 c -0.30509,-0.36761 -0.0474,-0.85009 0.74514,-1.3954 0.62317,-0.42875 0.7867,-0.47648 1.11697,-0.326 0.24474,0.11151 0.38601,0.31075 0.38445,0.54222 -0.003,0.47985 -0.12364,0.63497 -0.82206,1.05913 -0.67627,0.41069 -1.15015,0.45063 -1.4245,0.12005 z m -38.63888,-0.1205 c -0.25723,-0.25724 -0.24511,-0.69086 0.0256,-0.91554 0.33139,-0.27503 1.75795,-0.66929 2.06855,-0.57169 0.32014,0.1006 0.50016,0.56019 0.36123,0.92223 -0.103,0.2684 -1.34356,0.75832 -1.92022,0.75832 -0.18801,0 -0.42884,-0.087 -0.53516,-0.19332 z m 3.831,-1.26269 c -0.29505,-0.55131 -0.0442,-0.91889 0.82406,-1.20726 0.92829,-0.30833 1.52906,-0.21714 1.67886,0.25483 0.14994,0.47242 -0.15083,0.7474 -1.1283,1.03156 -1.09611,0.31864 -1.16382,0.31475 -1.37462,-0.0791 z m 56.63089,-4.68319 c -1.06328,-2.66596 -1.95841,-4.91567 -1.98919,-4.99936 -0.0331,-0.0901 0.49097,-0.13299 1.28484,-0.10513 l 1.3408,0.047 1.14322,3.01877 c 0.62877,1.66033 1.18148,3.05703 1.22824,3.10379 0.0468,0.0468 0.62155,-1.32877 1.27731,-3.05675 l 1.19228,-3.14177 1.26197,-0.002 c 0.69409,-0.001 1.23781,0.0627 1.20827,0.14205 -0.0295,0.0794 -0.95827,2.32677 -2.06385,4.99418 l -2.01014,4.84984 -0.97026,-0.002 -0.97025,-0.002 -1.93324,-4.84719 z m 10.06893,-0.14381 v -4.99419 h 1.12772 1.12772 v 4.99419 4.99419 h -1.12772 -1.12772 z m 7.08852,0.96662 v -4.02757 h -1.44992 -1.44993 v -0.96662 -0.96662 h 4.02757 4.02757 v 0.96662 0.96662 h -1.36937 -1.36937 v 4.02757 4.02757 h -1.20828 -1.20827 z m 7.24963,-0.96662 v -4.99419 h 3.54426 3.54426 v 1.04717 1.04717 h -2.33599 -2.33599 v 0.88606 0.88607 h 2.17489 2.17489 v 1.04717 1.04717 h -2.17489 -2.17489 v 0.96661 0.96662 h 2.41655 2.41654 v 1.04717 1.04717 h -3.62482 -3.62481 z m 9.82727,0 v -4.99419 l 2.53737,9.7e-4 c 2.78388,9.6e-4 3.48864,0.12586 4.22973,0.74944 0.70581,0.5939 0.96584,1.19707 0.96584,2.2404 0,1.18061 -0.47241,2.05992 -1.31503,2.44772 -0.33544,0.15438 -0.61176,0.35554 -0.61405,0.44703 -0.002,0.0915 0.53292,1.05207 1.18934,2.13461 l 1.1935,1.96821 h -1.39932 -1.39932 l -1.04272,-2.01093 c -0.94892,-1.83001 -1.08259,-2.01118 -1.48576,-2.01378 l -0.44304,-0.003 v 2.01378 2.01379 h -1.20827 -1.20827 z m 4.75771,-1.20005 c 0.45024,-0.18812 0.55821,-0.32103 0.55622,-0.68469 -0.001,-0.24819 -0.0572,-0.53734 -0.12411,-0.64255 -0.20176,-0.31732 -0.97109,-0.53366 -1.8977,-0.53366 h -0.87558 v 1.04716 1.04717 h 0.89125 c 0.49018,0 1.14264,-0.10504 1.44992,-0.23343 z m 5.55287,1.1998 v -5.02003 l 2.85958,0.0533 c 2.51084,0.0468 2.92628,0.0926 3.40659,0.37552 0.89762,0.52872 1.2264,1.10356 1.21622,2.12645 -0.008,0.83519 -0.0525,0.93436 -0.67519,1.51518 l -0.66628,0.6215 0.55182,0.26186 c 0.7821,0.37113 1.27035,1.23256 1.27035,2.24133 0,1.03733 -0.45746,1.80804 -1.39019,2.34213 -0.65461,0.37484 -0.85408,0.39954 -3.63277,0.44969 l -2.94013,0.0531 z m 5.3078,2.66623 c 0.24043,-0.21759 0.33172,-0.46393 0.29834,-0.80507 -0.0663,-0.67767 -0.84647,-1.05481 -2.1827,-1.05515 l -1.00689,-2.5e-4 v 1.14478 1.14478 l 1.2724,-0.0578 c 0.97877,-0.0444 1.35235,-0.13014 1.61885,-0.37131 z m -0.71119,-4.02713 c 0.46728,-0.19524 0.55868,-0.3152 0.55868,-0.73319 0,-0.41798 -0.0914,-0.53794 -0.55868,-0.73318 -0.30728,-0.12839 -0.9235,-0.23343 -1.36938,-0.23343 h -0.81068 v 0.96661 0.96662 h 0.81068 c 0.44588,0 1.0621,-0.10505 1.36938,-0.23343 z m 5.55287,1.36115 v -4.99419 h 1.12772 1.12772 v 4.99419 4.99419 h -1.12772 -1.12772 z m -73.03516,4.21626 c -0.43459,-0.48022 -0.31152,-0.80431 0.49862,-1.31305 0.83427,-0.5239 1.16158,-0.58975 1.45798,-0.29334 0.41904,0.41904 0.21687,0.91901 -0.57191,1.41434 -0.89945,0.56482 -1.03084,0.58305 -1.38469,0.19205 z M 342.66638,184.973 c -0.6068,-0.60681 -0.35876,-0.97776 0.91007,-1.361 0.94476,-0.28535 1.31681,-0.19754 1.45243,0.34282 0.12977,0.51705 0.009,0.62667 -1.11834,1.01451 -0.92208,0.31724 -0.93056,0.31727 -1.24416,0.004 z m 3.68281,-1.36227 c -0.24292,-0.53314 0.11747,-0.9405 1.06737,-1.20645 0.82133,-0.22996 1.32102,-0.11416 1.46501,0.33952 0.13795,0.43463 -0.25979,0.85111 -1.03445,1.08321 -0.94942,0.28445 -1.29235,0.23494 -1.49793,-0.21628 z m 13.9799,-5.93021 c -0.49221,-0.3599 -0.2595,-0.92177 0.60008,-1.44892 0.65913,-0.40423 0.83589,-0.44932 1.16799,-0.29801 0.67367,0.30695 0.52061,0.90894 -0.37392,1.47067 -0.86769,0.54489 -0.99287,0.56969 -1.39415,0.27626 z m 3.23153,-2.01744 c -0.4346,-0.48022 -0.31153,-0.80432 0.49862,-1.31306 0.8533,-0.53584 1.35009,-0.60794 1.65526,-0.24024 0.31343,0.37766 -0.0206,0.92714 -0.86421,1.42151 -0.86403,0.50635 -0.94336,0.51446 -1.28967,0.13179 z m 3.27502,-1.93055 c -0.50227,-0.40671 -0.31217,-0.87621 0.56226,-1.38866 0.7987,-0.46807 1.24543,-0.52063 1.52828,-0.17982 0.30222,0.36415 0.0495,0.84866 -0.71804,1.37676 -0.82332,0.56645 -0.89701,0.57675 -1.3725,0.19172 z m 3.06528,-2.04201 c -0.28672,-0.34547 -0.11951,-0.63048 0.7011,-1.19508 0.79746,-0.54866 1.24805,-0.6239 1.55093,-0.25895 0.28671,0.34547 0.1195,0.63049 -0.70111,1.19508 -0.79745,0.54867 -1.24804,0.6239 -1.55092,0.25895 z m 3.22677,-1.92755 c -0.30621,-0.36896 -0.0466,-0.85066 0.756,-1.40288 0.69131,-0.47563 0.76881,-0.49418 1.15725,-0.27689 0.71047,0.39742 0.62537,0.86591 -0.25804,1.4206 -0.85443,0.53649 -1.35944,0.61556 -1.65521,0.25917 z m 3.40896,-1.89264 c -0.39607,-0.39606 -0.21718,-0.91529 0.46335,-1.34489 0.94498,-0.59654 1.09135,-0.62787 1.44366,-0.30904 0.50996,0.46151 0.38637,0.83599 -0.44903,1.36059 -0.83427,0.5239 -1.16158,0.58975 -1.45798,0.29334 z"
       id="path1035"
       clip-path="url(#clipPath1222)" />
  </g>
</svg>
